0
SECTION
2
HEADER
9
$INSUNITS
70
4
0
ENDSEC
0
SECTION
2
TABLES
0
TABLE
2
LTYPE
0
LTYPE
72
65
70
64
2
CONTINUOUS
3
______
73
0
40
0
0
ENDTAB
0
TABLE
2
LAYER
0
ENDTAB
0
ENDSEC
0
SECTION
2
ENTITIES
0
ARC
8
0
10
3.025
20
-39.8375
40
0.5
50
180
51
270
0
ARC
8
0
10
16.025
20
-39.8375
40
0.5
50
270
51
0
0
ARC
8
0
10
16.025
20
-26.8375
40
0.5
50
0
51
90
0
ARC
8
0
10
3.025
20
-26.8375
40
0.5
50
90
51
180
0
LINE
8
0
10
3.025
20
-40.3375
11
16.025
21
-40.3375
0
LINE
8
0
10
16.025
20
-26.3375
11
3.025
21
-26.3375
0
LINE
8
0
10
16.525
20
-39.8375
11
16.525
21
-26.8375
0
LINE
8
0
10
2.525
20
-26.8375
11
2.525
21
-39.8375
0
ARC
8
0
10
26.8375
20
-39.8375
40
0.5
50
180
51
270
0
ARC
8
0
10
39.8375
20
-39.8375
40
0.5
50
270
51
0
0
ARC
8
0
10
39.8375
20
-26.8375
40
0.5
50
0
51
90
0
ARC
8
0
10
26.8375
20
-26.8375
40
0.5
50
90
51
180
0
LINE
8
0
10
26.8375
20
-40.3375
11
39.8375
21
-40.3375
0
LINE
8
0
10
39.8375
20
-26.3375
11
26.8375
21
-26.3375
0
LINE
8
0
10
40.3375
20
-39.8375
11
40.3375
21
-26.8375
0
LINE
8
0
10
26.3375
20
-26.8375
11
26.3375
21
-39.8375
0
ARC
8
0
10
45.8875
20
-39.8375
40
0.5
50
180
51
270
0
ARC
8
0
10
58.8875
20
-39.8375
40
0.5
50
270
51
0
0
ARC
8
0
10
58.8875
20
-26.8375
40
0.5
50
0
51
90
0
ARC
8
0
10
45.8875
20
-26.8375
40
0.5
50
90
51
180
0
LINE
8
0
10
45.8875
20
-40.3375
11
58.8875
21
-40.3375
0
LINE
8
0
10
58.8875
20
-26.3375
11
45.8875
21
-26.3375
0
LINE
8
0
10
59.3875
20
-39.8375
11
59.3875
21
-26.8375
0
LINE
8
0
10
45.3875
20
-26.8375
11
45.3875
21
-39.8375
0
ARC
8
0
10
69.7
20
-44.6
40
0.5
50
180
51
270
0
ARC
8
0
10
82.7
20
-44.6
40
0.5
50
270
51
0
0
ARC
8
0
10
82.7
20
-31.6
40
0.5
50
0
51
90
0
ARC
8
0
10
69.7
20
-31.6
40
0.5
50
90
51
180
0
LINE
8
0
10
69.7
20
-45.1
11
82.7
21
-45.1
0
LINE
8
0
10
82.7
20
-31.1
11
69.7
21
-31.1
0
LINE
8
0
10
83.2
20
-44.6
11
83.2
21
-31.6
0
LINE
8
0
10
69.2
20
-31.6
11
69.2
21
-44.6
0
ARC
8
0
10
88.75
20
-44.6
40
0.5
50
180
51
270
0
ARC
8
0
10
101.75
20
-44.6
40
0.5
50
270
51
0
0
ARC
8
0
10
101.75
20
-31.6
40
0.5
50
0
51
90
0
ARC
8
0
10
88.75
20
-31.6
40
0.5
50
90
51
180
0
LINE
8
0
10
88.75
20
-45.1
11
101.75
21
-45.1
0
LINE
8
0
10
101.75
20
-31.1
11
88.75
21
-31.1
0
LINE
8
0
10
102.25
20
-44.6
11
102.25
21
-31.6
0
LINE
8
0
10
88.25
20
-31.6
11
88.25
21
-44.6
0
ARC
8
0
10
107.8
20
-44.6
40
0.5
50
180
51
270
0
ARC
8
0
10
120.8
20
-44.6
40
0.5
50
270
51
0
0
ARC
8
0
10
120.8
20
-31.6
40
0.5
50
0
51
90
0
ARC
8
0
10
107.8
20
-31.6
40
0.5
50
90
51
180
0
LINE
8
0
10
107.8
20
-45.1
11
120.8
21
-45.1
0
LINE
8
0
10
120.8
20
-31.1
11
107.8
21
-31.1
0
LINE
8
0
10
121.3
20
-44.6
11
121.3
21
-31.6
0
LINE
8
0
10
107.3
20
-31.6
11
107.3
21
-44.6
0
ARC
8
0
10
126.85
20
-44.6
40
0.5
50
180
51
270
0
ARC
8
0
10
139.85
20
-44.6
40
0.5
50
270
51
0
0
ARC
8
0
10
139.85
20
-31.6
40
0.5
50
0
51
90
0
ARC
8
0
10
126.85
20
-31.6
40
0.5
50
90
51
180
0
LINE
8
0
10
126.85
20
-45.1
11
139.85
21
-45.1
0
LINE
8
0
10
139.85
20
-31.1
11
126.85
21
-31.1
0
LINE
8
0
10
140.35
20
-44.6
11
140.35
21
-31.6
0
LINE
8
0
10
126.35
20
-31.6
11
126.35
21
-44.6
0
ARC
8
0
10
145.9
20
-44.6
40
0.5
50
180
51
270
0
ARC
8
0
10
158.9
20
-44.6
40
0.5
50
270
51
0
0
ARC
8
0
10
158.9
20
-31.6
40
0.5
50
0
51
90
0
ARC
8
0
10
145.9
20
-31.6
40
0.5
50
90
51
180
0
LINE
8
0
10
145.9
20
-45.1
11
158.9
21
-45.1
0
LINE
8
0
10
158.9
20
-31.1
11
145.9
21
-31.1
0
LINE
8
0
10
159.4
20
-44.6
11
159.4
21
-31.6
0
LINE
8
0
10
145.4
20
-31.6
11
145.4
21
-44.6
0
ARC
8
0
10
164.95
20
-44.6
40
0.5
50
180
51
270
0
ARC
8
0
10
177.95
20
-44.6
40
0.5
50
270
51
0
0
ARC
8
0
10
177.95
20
-31.6
40
0.5
50
0
51
90
0
ARC
8
0
10
164.95
20
-31.6
40
0.5
50
90
51
180
0
LINE
8
0
10
164.95
20
-45.1
11
177.95
21
-45.1
0
LINE
8
0
10
177.95
20
-31.1
11
164.95
21
-31.1
0
LINE
8
0
10
178.45
20
-44.6
11
178.45
21
-31.6
0
LINE
8
0
10
164.45
20
-31.6
11
164.45
21
-44.6
0
ARC
8
0
10
184
20
-44.6
40
0.5
50
180
51
270
0
ARC
8
0
10
197
20
-44.6
40
0.5
50
270
51
0
0
ARC
8
0
10
197
20
-31.6
40
0.5
50
0
51
90
0
ARC
8
0
10
184
20
-31.6
40
0.5
50
90
51
180
0
LINE
8
0
10
184
20
-45.1
11
197
21
-45.1
0
LINE
8
0
10
197
20
-31.1
11
184
21
-31.1
0
LINE
8
0
10
197.5
20
-44.6
11
197.5
21
-31.6
0
LINE
8
0
10
183.5
20
-31.6
11
183.5
21
-44.6
0
ARC
8
0
10
7.7875
20
-63.65
40
0.5
50
180
51
270
0
ARC
8
0
10
20.7875
20
-63.65
40
0.5
50
270
51
0
0
ARC
8
0
10
20.7875
20
-50.65
40
0.5
50
0
51
90
0
ARC
8
0
10
7.7875
20
-50.65
40
0.5
50
90
51
180
0
LINE
8
0
10
7.7875
20
-64.15
11
20.7875
21
-64.15
0
LINE
8
0
10
20.7875
20
-50.15
11
7.7875
21
-50.15
0
LINE
8
0
10
21.2875
20
-63.65
11
21.2875
21
-50.65
0
LINE
8
0
10
7.2875
20
-50.65
11
7.2875
21
-63.65
0
ARC
8
0
10
26.8375
20
-63.65
40
0.5
50
180
51
270
0
ARC
8
0
10
39.8375
20
-63.65
40
0.5
50
270
51
0
0
ARC
8
0
10
39.8375
20
-50.65
40
0.5
50
0
51
90
0
ARC
8
0
10
26.8375
20
-50.65
40
0.5
50
90
51
180
0
LINE
8
0
10
26.8375
20
-64.15
11
39.8375
21
-64.15
0
LINE
8
0
10
39.8375
20
-50.15
11
26.8375
21
-50.15
0
LINE
8
0
10
40.3375
20
-63.65
11
40.3375
21
-50.65
0
LINE
8
0
10
26.3375
20
-50.65
11
26.3375
21
-63.65
0
ARC
8
0
10
45.8875
20
-63.65
40
0.5
50
180
51
270
0
ARC
8
0
10
58.8875
20
-63.65
40
0.5
50
270
51
0
0
ARC
8
0
10
58.8875
20
-50.65
40
0.5
50
0
51
90
0
ARC
8
0
10
45.8875
20
-50.65
40
0.5
50
90
51
180
0
LINE
8
0
10
45.8875
20
-64.15
11
58.8875
21
-64.15
0
LINE
8
0
10
58.8875
20
-50.15
11
45.8875
21
-50.15
0
LINE
8
0
10
59.3875
20
-63.65
11
59.3875
21
-50.65
0
LINE
8
0
10
45.3875
20
-50.65
11
45.3875
21
-63.65
0
ARC
8
0
10
74.4625
20
-63.65
40
0.5
50
180
51
270
0
ARC
8
0
10
87.4625
20
-63.65
40
0.5
50
270
51
0
0
ARC
8
0
10
87.4625
20
-50.65
40
0.5
50
0
51
90
0
ARC
8
0
10
74.4625
20
-50.65
40
0.5
50
90
51
180
0
LINE
8
0
10
74.4625
20
-64.15
11
87.4625
21
-64.15
0
LINE
8
0
10
87.4625
20
-50.15
11
74.4625
21
-50.15
0
LINE
8
0
10
87.9625
20
-63.65
11
87.9625
21
-50.65
0
LINE
8
0
10
73.9625
20
-50.65
11
73.9625
21
-63.65
0
ARC
8
0
10
68.8625
20
-63.65
40
0.5
50
180
51
270
0
ARC
8
0
10
69.8625
20
-63.65
40
0.5
50
270
51
0
0
ARC
8
0
10
69.8625
20
-50.65
40
0.5
50
0
51
90
0
ARC
8
0
10
68.8625
20
-50.65
40
0.5
50
90
51
180
0
LINE
8
0
10
68.8625
20
-64.15
11
69.8625
21
-64.15
0
LINE
8
0
10
69.8625
20
-50.15
11
68.8625
21
-50.15
0
LINE
8
0
10
70.3625
20
-63.65
11
70.3625
21
-50.65
0
LINE
8
0
10
68.3625
20
-50.65
11
68.3625
21
-63.65
0
ARC
8
0
10
92.0625
20
-63.65
40
0.5
50
180
51
270
0
ARC
8
0
10
93.0625
20
-63.65
40
0.5
50
270
51
0
0
ARC
8
0
10
93.0625
20
-50.65
40
0.5
50
0
51
90
0
ARC
8
0
10
92.0625
20
-50.65
40
0.5
50
90
51
180
0
LINE
8
0
10
92.0625
20
-64.15
11
93.0625
21
-64.15
0
LINE
8
0
10
93.0625
20
-50.15
11
92.0625
21
-50.15
0
LINE
8
0
10
93.5625
20
-63.65
11
93.5625
21
-50.65
0
LINE
8
0
10
91.5625
20
-50.65
11
91.5625
21
-63.65
0
ARC
8
0
10
98.275
20
-63.65
40
0.5
50
180
51
270
0
ARC
8
0
10
111.275
20
-63.65
40
0.5
50
270
51
0
0
ARC
8
0
10
111.275
20
-50.65
40
0.5
50
0
51
90
0
ARC
8
0
10
98.275
20
-50.65
40
0.5
50
90
51
180
0
LINE
8
0
10
98.275
20
-64.15
11
111.275
21
-64.15
0
LINE
8
0
10
111.275
20
-50.15
11
98.275
21
-50.15
0
LINE
8
0
10
111.775
20
-63.65
11
111.775
21
-50.65
0
LINE
8
0
10
97.775
20
-50.65
11
97.775
21
-63.65
0
ARC
8
0
10
117.325
20
-63.65
40
0.5
50
180
51
270
0
ARC
8
0
10
130.325
20
-63.65
40
0.5
50
270
51
0
0
ARC
8
0
10
130.325
20
-50.65
40
0.5
50
0
51
90
0
ARC
8
0
10
117.325
20
-50.65
40
0.5
50
90
51
180
0
LINE
8
0
10
117.325
20
-64.15
11
130.325
21
-64.15
0
LINE
8
0
10
130.325
20
-50.15
11
117.325
21
-50.15
0
LINE
8
0
10
130.825
20
-63.65
11
130.825
21
-50.65
0
LINE
8
0
10
116.825
20
-50.65
11
116.825
21
-63.65
0
ARC
8
0
10
136.375
20
-63.65
40
0.5
50
180
51
270
0
ARC
8
0
10
149.375
20
-63.65
40
0.5
50
270
51
0
0
ARC
8
0
10
149.375
20
-50.65
40
0.5
50
0
51
90
0
ARC
8
0
10
136.375
20
-50.65
40
0.5
50
90
51
180
0
LINE
8
0
10
136.375
20
-64.15
11
149.375
21
-64.15
0
LINE
8
0
10
149.375
20
-50.15
11
136.375
21
-50.15
0
LINE
8
0
10
149.875
20
-63.65
11
149.875
21
-50.65
0
LINE
8
0
10
135.875
20
-50.65
11
135.875
21
-63.65
0
ARC
8
0
10
155.425
20
-63.65
40
0.5
50
180
51
270
0
ARC
8
0
10
168.425
20
-63.65
40
0.5
50
270
51
0
0
ARC
8
0
10
168.425
20
-50.65
40
0.5
50
0
51
90
0
ARC
8
0
10
155.425
20
-50.65
40
0.5
50
90
51
180
0
LINE
8
0
10
155.425
20
-64.15
11
168.425
21
-64.15
0
LINE
8
0
10
168.425
20
-50.15
11
155.425
21
-50.15
0
LINE
8
0
10
168.925
20
-63.65
11
168.925
21
-50.65
0
LINE
8
0
10
154.925
20
-50.65
11
154.925
21
-63.65
0
ARC
8
0
10
174.475
20
-63.65
40
0.5
50
180
51
270
0
ARC
8
0
10
187.475
20
-63.65
40
0.5
50
270
51
0
0
ARC
8
0
10
187.475
20
-50.65
40
0.5
50
0
51
90
0
ARC
8
0
10
174.475
20
-50.65
40
0.5
50
90
51
180
0
LINE
8
0
10
174.475
20
-64.15
11
187.475
21
-64.15
0
LINE
8
0
10
187.475
20
-50.15
11
174.475
21
-50.15
0
LINE
8
0
10
187.975
20
-63.65
11
187.975
21
-50.65
0
LINE
8
0
10
173.975
20
-50.65
11
173.975
21
-63.65
0
ARC
8
0
10
7.7875
20
-82.7
40
0.5
50
180
51
270
0
ARC
8
0
10
20.7875
20
-82.7
40
0.5
50
270
51
0
0
ARC
8
0
10
20.7875
20
-69.7
40
0.5
50
0
51
90
0
ARC
8
0
10
7.7875
20
-69.7
40
0.5
50
90
51
180
0
LINE
8
0
10
7.7875
20
-83.2
11
20.7875
21
-83.2
0
LINE
8
0
10
20.7875
20
-69.2
11
7.7875
21
-69.2
0
LINE
8
0
10
21.2875
20
-82.7
11
21.2875
21
-69.7
0
LINE
8
0
10
7.2875
20
-69.7
11
7.2875
21
-82.7
0
ARC
8
0
10
26.8375
20
-82.7
40
0.5
50
180
51
270
0
ARC
8
0
10
39.8375
20
-82.7
40
0.5
50
270
51
0
0
ARC
8
0
10
39.8375
20
-69.7
40
0.5
50
0
51
90
0
ARC
8
0
10
26.8375
20
-69.7
40
0.5
50
90
51
180
0
LINE
8
0
10
26.8375
20
-83.2
11
39.8375
21
-83.2
0
LINE
8
0
10
39.8375
20
-69.2
11
26.8375
21
-69.2
0
LINE
8
0
10
40.3375
20
-82.7
11
40.3375
21
-69.7
0
LINE
8
0
10
26.3375
20
-69.7
11
26.3375
21
-82.7
0
ARC
8
0
10
45.8875
20
-82.7
40
0.5
50
180
51
270
0
ARC
8
0
10
58.8875
20
-82.7
40
0.5
50
270
51
0
0
ARC
8
0
10
58.8875
20
-69.7
40
0.5
50
0
51
90
0
ARC
8
0
10
45.8875
20
-69.7
40
0.5
50
90
51
180
0
LINE
8
0
10
45.8875
20
-83.2
11
58.8875
21
-83.2
0
LINE
8
0
10
58.8875
20
-69.2
11
45.8875
21
-69.2
0
LINE
8
0
10
59.3875
20
-82.7
11
59.3875
21
-69.7
0
LINE
8
0
10
45.3875
20
-69.7
11
45.3875
21
-82.7
0
ARC
8
0
10
72.08125
20
-82.7
40
0.5
50
180
51
270
0
ARC
8
0
10
85.08125
20
-82.7
40
0.5
50
270
51
0
0
ARC
8
0
10
85.08125
20
-69.7
40
0.5
50
0
51
90
0
ARC
8
0
10
72.08125
20
-69.7
40
0.5
50
90
51
180
0
LINE
8
0
10
72.08125
20
-83.2
11
85.08125
21
-83.2
0
LINE
8
0
10
85.08125
20
-69.2
11
72.08125
21
-69.2
0
LINE
8
0
10
85.58125
20
-82.7
11
85.58125
21
-69.7
0
LINE
8
0
10
71.58125
20
-69.7
11
71.58125
21
-82.7
0
ARC
8
0
10
76.84375
20
-82.7
40
0.5
50
180
51
270
0
ARC
8
0
10
89.84375
20
-82.7
40
0.5
50
270
51
0
0
ARC
8
0
10
89.84375
20
-69.7
40
0.5
50
0
51
90
0
ARC
8
0
10
76.84375
20
-69.7
40
0.5
50
90
51
180
0
LINE
8
0
10
76.84375
20
-83.2
11
89.84375
21
-83.2
0
LINE
8
0
10
89.84375
20
-69.2
11
76.84375
21
-69.2
0
LINE
8
0
10
90.34375
20
-82.7
11
90.34375
21
-69.7
0
LINE
8
0
10
76.34375
20
-69.7
11
76.34375
21
-82.7
0
ARC
8
0
10
103.0375
20
-82.7
40
0.5
50
180
51
270
0
ARC
8
0
10
116.0375
20
-82.7
40
0.5
50
270
51
0
0
ARC
8
0
10
116.0375
20
-69.7
40
0.5
50
0
51
90
0
ARC
8
0
10
103.0375
20
-69.7
40
0.5
50
90
51
180
0
LINE
8
0
10
103.0375
20
-83.2
11
116.0375
21
-83.2
0
LINE
8
0
10
116.0375
20
-69.2
11
103.0375
21
-69.2
0
LINE
8
0
10
116.5375
20
-82.7
11
116.5375
21
-69.7
0
LINE
8
0
10
102.5375
20
-69.7
11
102.5375
21
-82.7
0
ARC
8
0
10
122.0875
20
-82.7
40
0.5
50
180
51
270
0
ARC
8
0
10
135.0875
20
-82.7
40
0.5
50
270
51
0
0
ARC
8
0
10
135.0875
20
-69.7
40
0.5
50
0
51
90
0
ARC
8
0
10
122.0875
20
-69.7
40
0.5
50
90
51
180
0
LINE
8
0
10
122.0875
20
-83.2
11
135.0875
21
-83.2
0
LINE
8
0
10
135.0875
20
-69.2
11
122.0875
21
-69.2
0
LINE
8
0
10
135.5875
20
-82.7
11
135.5875
21
-69.7
0
LINE
8
0
10
121.5875
20
-69.7
11
121.5875
21
-82.7
0
ARC
8
0
10
141.1375
20
-82.7
40
0.5
50
180
51
270
0
ARC
8
0
10
154.1375
20
-82.7
40
0.5
50
270
51
0
0
ARC
8
0
10
154.1375
20
-69.7
40
0.5
50
0
51
90
0
ARC
8
0
10
141.1375
20
-69.7
40
0.5
50
90
51
180
0
LINE
8
0
10
141.1375
20
-83.2
11
154.1375
21
-83.2
0
LINE
8
0
10
154.1375
20
-69.2
11
141.1375
21
-69.2
0
LINE
8
0
10
154.6375
20
-82.7
11
154.6375
21
-69.7
0
LINE
8
0
10
140.6375
20
-69.7
11
140.6375
21
-82.7
0
ARC
8
0
10
160.1875
20
-82.7
40
0.5
50
180
51
270
0
ARC
8
0
10
173.1875
20
-82.7
40
0.5
50
270
51
0
0
ARC
8
0
10
173.1875
20
-69.7
40
0.5
50
0
51
90
0
ARC
8
0
10
160.1875
20
-69.7
40
0.5
50
90
51
180
0
LINE
8
0
10
160.1875
20
-83.2
11
173.1875
21
-83.2
0
LINE
8
0
10
173.1875
20
-69.2
11
160.1875
21
-69.2
0
LINE
8
0
10
173.6875
20
-82.7
11
173.6875
21
-69.7
0
LINE
8
0
10
159.6875
20
-69.7
11
159.6875
21
-82.7
0
ARC
8
0
10
179.2375
20
-82.7
40
0.5
50
180
51
270
0
ARC
8
0
10
192.2375
20
-82.7
40
0.5
50
270
51
0
0
ARC
8
0
10
192.2375
20
-69.7
40
0.5
50
0
51
90
0
ARC
8
0
10
179.2375
20
-69.7
40
0.5
50
90
51
180
0
LINE
8
0
10
179.2375
20
-83.2
11
192.2375
21
-83.2
0
LINE
8
0
10
192.2375
20
-69.2
11
179.2375
21
-69.2
0
LINE
8
0
10
192.7375
20
-82.7
11
192.7375
21
-69.7
0
LINE
8
0
10
178.7375
20
-69.7
11
178.7375
21
-82.7
0
ARC
8
0
10
7.7875
20
-101.75
40
0.5
50
180
51
270
0
ARC
8
0
10
20.7875
20
-101.75
40
0.5
50
270
51
0
0
ARC
8
0
10
20.7875
20
-88.75
40
0.5
50
0
51
90
0
ARC
8
0
10
7.7875
20
-88.75
40
0.5
50
90
51
180
0
LINE
8
0
10
7.7875
20
-102.25
11
20.7875
21
-102.25
0
LINE
8
0
10
20.7875
20
-88.25
11
7.7875
21
-88.25
0
LINE
8
0
10
21.2875
20
-101.75
11
21.2875
21
-88.75
0
LINE
8
0
10
7.2875
20
-88.75
11
7.2875
21
-101.75
0
ARC
8
0
10
26.8375
20
-101.75
40
0.5
50
180
51
270
0
ARC
8
0
10
39.8375
20
-101.75
40
0.5
50
270
51
0
0
ARC
8
0
10
39.8375
20
-88.75
40
0.5
50
0
51
90
0
ARC
8
0
10
26.8375
20
-88.75
40
0.5
50
90
51
180
0
LINE
8
0
10
26.8375
20
-102.25
11
39.8375
21
-102.25
0
LINE
8
0
10
39.8375
20
-88.25
11
26.8375
21
-88.25
0
LINE
8
0
10
40.3375
20
-101.75
11
40.3375
21
-88.75
0
LINE
8
0
10
26.3375
20
-88.75
11
26.3375
21
-101.75
0
ARC
8
0
10
45.8875
20
-101.75
40
0.5
50
180
51
270
0
ARC
8
0
10
58.8875
20
-101.75
40
0.5
50
270
51
0
0
ARC
8
0
10
58.8875
20
-88.75
40
0.5
50
0
51
90
0
ARC
8
0
10
45.8875
20
-88.75
40
0.5
50
90
51
180
0
LINE
8
0
10
45.8875
20
-102.25
11
58.8875
21
-102.25
0
LINE
8
0
10
58.8875
20
-88.25
11
45.8875
21
-88.25
0
LINE
8
0
10
59.3875
20
-101.75
11
59.3875
21
-88.75
0
LINE
8
0
10
45.3875
20
-88.75
11
45.3875
21
-101.75
0
ARC
8
0
10
81.60625
20
-101.75
40
0.5
50
180
51
270
0
ARC
8
0
10
94.60625
20
-101.75
40
0.5
50
270
51
0
0
ARC
8
0
10
94.60625
20
-88.75
40
0.5
50
0
51
90
0
ARC
8
0
10
81.60625
20
-88.75
40
0.5
50
90
51
180
0
LINE
8
0
10
81.60625
20
-102.25
11
94.60625
21
-102.25
0
LINE
8
0
10
94.60625
20
-88.25
11
81.60625
21
-88.25
0
LINE
8
0
10
95.10625
20
-101.75
11
95.10625
21
-88.75
0
LINE
8
0
10
81.10625
20
-88.75
11
81.10625
21
-101.75
0
ARC
8
0
10
73.16825
20
-102.75
40
0.5
50
180
51
270
0
ARC
8
0
10
79.16825
20
-102.75
40
0.5
50
270
51
0
0
ARC
8
0
10
79.16825
20
-88.75
40
0.5
50
0
51
90
0
ARC
8
0
10
73.16825
20
-88.75
40
0.5
50
90
51
180
0
LINE
8
0
10
73.16825
20
-103.25
11
79.16825
21
-103.25
0
LINE
8
0
10
79.16825
20
-88.25
11
73.16825
21
-88.25
0
LINE
8
0
10
79.66825
20
-102.75
11
79.66825
21
-88.75
0
LINE
8
0
10
72.66825
20
-88.75
11
72.66825
21
-102.75
0
ARC
8
0
10
97.04425
20
-102.75
40
0.5
50
180
51
270
0
ARC
8
0
10
103.04425
20
-102.75
40
0.5
50
270
51
0
0
ARC
8
0
10
103.04425
20
-88.75
40
0.5
50
0
51
90
0
ARC
8
0
10
97.04425
20
-88.75
40
0.5
50
90
51
180
0
LINE
8
0
10
97.04425
20
-103.25
11
103.04425
21
-103.25
0
LINE
8
0
10
103.04425
20
-88.25
11
97.04425
21
-88.25
0
LINE
8
0
10
103.54425
20
-102.75
11
103.54425
21
-88.75
0
LINE
8
0
10
96.54425
20
-88.75
11
96.54425
21
-102.75
0
ARC
8
0
10
112.5625
20
-101.75
40
0.5
50
180
51
270
0
ARC
8
0
10
125.5625
20
-101.75
40
0.5
50
270
51
0
0
ARC
8
0
10
125.5625
20
-88.75
40
0.5
50
0
51
90
0
ARC
8
0
10
112.5625
20
-88.75
40
0.5
50
90
51
180
0
LINE
8
0
10
112.5625
20
-102.25
11
125.5625
21
-102.25
0
LINE
8
0
10
125.5625
20
-88.25
11
112.5625
21
-88.25
0
LINE
8
0
10
126.0625
20
-101.75
11
126.0625
21
-88.75
0
LINE
8
0
10
112.0625
20
-88.75
11
112.0625
21
-101.75
0
ARC
8
0
10
131.6125
20
-101.75
40
0.5
50
180
51
270
0
ARC
8
0
10
144.6125
20
-101.75
40
0.5
50
270
51
0
0
ARC
8
0
10
144.6125
20
-88.75
40
0.5
50
0
51
90
0
ARC
8
0
10
131.6125
20
-88.75
40
0.5
50
90
51
180
0
LINE
8
0
10
131.6125
20
-102.25
11
144.6125
21
-102.25
0
LINE
8
0
10
144.6125
20
-88.25
11
131.6125
21
-88.25
0
LINE
8
0
10
145.1125
20
-101.75
11
145.1125
21
-88.75
0
LINE
8
0
10
131.1125
20
-88.75
11
131.1125
21
-101.75
0
ARC
8
0
10
150.6625
20
-101.75
40
0.5
50
180
51
270
0
ARC
8
0
10
163.6625
20
-101.75
40
0.5
50
270
51
0
0
ARC
8
0
10
163.6625
20
-88.75
40
0.5
50
0
51
90
0
ARC
8
0
10
150.6625
20
-88.75
40
0.5
50
90
51
180
0
LINE
8
0
10
150.6625
20
-102.25
11
163.6625
21
-102.25
0
LINE
8
0
10
163.6625
20
-88.25
11
150.6625
21
-88.25
0
LINE
8
0
10
164.1625
20
-101.75
11
164.1625
21
-88.75
0
LINE
8
0
10
150.1625
20
-88.75
11
150.1625
21
-101.75
0
ARC
8
0
10
169.7125
20
-101.75
40
0.5
50
180
51
270
0
ARC
8
0
10
182.7125
20
-101.75
40
0.5
50
270
51
0
0
ARC
8
0
10
182.7125
20
-88.75
40
0.5
50
0
51
90
0
ARC
8
0
10
169.7125
20
-88.75
40
0.5
50
90
51
180
0
LINE
8
0
10
169.7125
20
-102.25
11
182.7125
21
-102.25
0
LINE
8
0
10
182.7125
20
-88.25
11
169.7125
21
-88.25
0
LINE
8
0
10
183.2125
20
-101.75
11
183.2125
21
-88.75
0
LINE
8
0
10
169.2125
20
-88.75
11
169.2125
21
-101.75
0
ARC
8
0
10
188.7625
20
-101.75
40
0.5
50
180
51
270
0
ARC
8
0
10
201.7625
20
-101.75
40
0.5
50
270
51
0
0
ARC
8
0
10
201.7625
20
-88.75
40
0.5
50
0
51
90
0
ARC
8
0
10
188.7625
20
-88.75
40
0.5
50
90
51
180
0
LINE
8
0
10
188.7625
20
-102.25
11
201.7625
21
-102.25
0
LINE
8
0
10
201.7625
20
-88.25
11
188.7625
21
-88.25
0
LINE
8
0
10
202.2625
20
-101.75
11
202.2625
21
-88.75
0
LINE
8
0
10
188.2625
20
-88.75
11
188.2625
21
-101.75
0
ARC
8
0
10
7.7875
20
-120.8
40
0.5
50
180
51
270
0
ARC
8
0
10
20.7875
20
-120.8
40
0.5
50
270
51
0
0
ARC
8
0
10
20.7875
20
-107.8
40
0.5
50
0
51
90
0
ARC
8
0
10
7.7875
20
-107.8
40
0.5
50
90
51
180
0
LINE
8
0
10
7.7875
20
-121.3
11
20.7875
21
-121.3
0
LINE
8
0
10
20.7875
20
-107.3
11
7.7875
21
-107.3
0
LINE
8
0
10
21.2875
20
-120.8
11
21.2875
21
-107.8
0
LINE
8
0
10
7.2875
20
-107.8
11
7.2875
21
-120.8
0
ARC
8
0
10
26.8375
20
-120.8
40
0.5
50
180
51
270
0
ARC
8
0
10
39.8375
20
-120.8
40
0.5
50
270
51
0
0
ARC
8
0
10
39.8375
20
-107.8
40
0.5
50
0
51
90
0
ARC
8
0
10
26.8375
20
-107.8
40
0.5
50
90
51
180
0
LINE
8
0
10
26.8375
20
-121.3
11
39.8375
21
-121.3
0
LINE
8
0
10
39.8375
20
-107.3
11
26.8375
21
-107.3
0
LINE
8
0
10
40.3375
20
-120.8
11
40.3375
21
-107.8
0
LINE
8
0
10
26.3375
20
-107.8
11
26.3375
21
-120.8
0
ARC
8
0
10
45.8875
20
-120.8
40
0.5
50
180
51
270
0
ARC
8
0
10
58.8875
20
-120.8
40
0.5
50
270
51
0
0
ARC
8
0
10
58.8875
20
-107.8
40
0.5
50
0
51
90
0
ARC
8
0
10
45.8875
20
-107.8
40
0.5
50
90
51
180
0
LINE
8
0
10
45.8875
20
-121.3
11
58.8875
21
-121.3
0
LINE
8
0
10
58.8875
20
-107.3
11
45.8875
21
-107.3
0
LINE
8
0
10
59.3875
20
-120.8
11
59.3875
21
-107.8
0
LINE
8
0
10
45.3875
20
-107.8
11
45.3875
21
-120.8
0
ARC
8
0
10
74.4625
20
-120.8
40
0.5
50
180
51
270
0
ARC
8
0
10
87.4625
20
-120.8
40
0.5
50
270
51
0
0
ARC
8
0
10
87.4625
20
-107.8
40
0.5
50
0
51
90
0
ARC
8
0
10
74.4625
20
-107.8
40
0.5
50
90
51
180
0
LINE
8
0
10
74.4625
20
-121.3
11
87.4625
21
-121.3
0
LINE
8
0
10
87.4625
20
-107.3
11
74.4625
21
-107.3
0
LINE
8
0
10
87.9625
20
-120.8
11
87.9625
21
-107.8
0
LINE
8
0
10
73.9625
20
-107.8
11
73.9625
21
-120.8
0
ARC
8
0
10
68.8625
20
-120.8
40
0.5
50
180
51
270
0
ARC
8
0
10
69.8625
20
-120.8
40
0.5
50
270
51
0
0
ARC
8
0
10
69.8625
20
-107.8
40
0.5
50
0
51
90
0
ARC
8
0
10
68.8625
20
-107.8
40
0.5
50
90
51
180
0
LINE
8
0
10
68.8625
20
-121.3
11
69.8625
21
-121.3
0
LINE
8
0
10
69.8625
20
-107.3
11
68.8625
21
-107.3
0
LINE
8
0
10
70.3625
20
-120.8
11
70.3625
21
-107.8
0
LINE
8
0
10
68.3625
20
-107.8
11
68.3625
21
-120.8
0
ARC
8
0
10
92.0625
20
-120.8
40
0.5
50
180
51
270
0
ARC
8
0
10
93.0625
20
-120.8
40
0.5
50
270
51
0
0
ARC
8
0
10
93.0625
20
-107.8
40
0.5
50
0
51
90
0
ARC
8
0
10
92.0625
20
-107.8
40
0.5
50
90
51
180
0
LINE
8
0
10
92.0625
20
-121.3
11
93.0625
21
-121.3
0
LINE
8
0
10
93.0625
20
-107.3
11
92.0625
21
-107.3
0
LINE
8
0
10
93.5625
20
-120.8
11
93.5625
21
-107.8
0
LINE
8
0
10
91.5625
20
-107.8
11
91.5625
21
-120.8
0
ARC
8
0
10
100.65625
20
-120.8
40
0.5
50
180
51
270
0
ARC
8
0
10
113.65625
20
-120.8
40
0.5
50
270
51
0
0
ARC
8
0
10
113.65625
20
-107.8
40
0.5
50
0
51
90
0
ARC
8
0
10
100.65625
20
-107.8
40
0.5
50
90
51
180
0
LINE
8
0
10
100.65625
20
-121.3
11
113.65625
21
-121.3
0
LINE
8
0
10
113.65625
20
-107.3
11
100.65625
21
-107.3
0
LINE
8
0
10
114.15625
20
-120.8
11
114.15625
21
-107.8
0
LINE
8
0
10
100.15625
20
-107.8
11
100.15625
21
-120.8
0
ARC
8
0
10
124.46875
20
-120.8
40
0.5
50
180
51
270
0
ARC
8
0
10
137.46875
20
-120.8
40
0.5
50
270
51
0
0
ARC
8
0
10
137.46875
20
-107.8
40
0.5
50
0
51
90
0
ARC
8
0
10
124.46875
20
-107.8
40
0.5
50
90
51
180
0
LINE
8
0
10
124.46875
20
-121.3
11
137.46875
21
-121.3
0
LINE
8
0
10
137.46875
20
-107.3
11
124.46875
21
-107.3
0
LINE
8
0
10
137.96875
20
-120.8
11
137.96875
21
-107.8
0
LINE
8
0
10
123.96875
20
-107.8
11
123.96875
21
-120.8
0
ARC
8
0
10
148.28125
20
-120.8
40
0.5
50
180
51
270
0
ARC
8
0
10
161.28125
20
-120.8
40
0.5
50
270
51
0
0
ARC
8
0
10
161.28125
20
-107.8
40
0.5
50
0
51
90
0
ARC
8
0
10
148.28125
20
-107.8
40
0.5
50
90
51
180
0
LINE
8
0
10
148.28125
20
-121.3
11
161.28125
21
-121.3
0
LINE
8
0
10
161.28125
20
-107.3
11
148.28125
21
-107.3
0
LINE
8
0
10
161.78125
20
-120.8
11
161.78125
21
-107.8
0
LINE
8
0
10
147.78125
20
-107.8
11
147.78125
21
-120.8
0
ARC
8
0
10
179.2375
20
-120.8
40
0.5
50
180
51
270
0
ARC
8
0
10
192.2375
20
-120.8
40
0.5
50
270
51
0
0
ARC
8
0
10
192.2375
20
-107.8
40
0.5
50
0
51
90
0
ARC
8
0
10
179.2375
20
-107.8
40
0.5
50
90
51
180
0
LINE
8
0
10
179.2375
20
-121.3
11
192.2375
21
-121.3
0
LINE
8
0
10
192.2375
20
-107.3
11
179.2375
21
-107.3
0
LINE
8
0
10
192.7375
20
-120.8
11
192.7375
21
-107.8
0
LINE
8
0
10
178.7375
20
-107.8
11
178.7375
21
-120.8
0
ARC
8
0
10
200.6755
20
-106.8
40
0.5
50
0
51
90
0
ARC
8
0
10
194.6755
20
-106.8
40
0.5
50
90
51
180
0
ARC
8
0
10
194.6755
20
-120.8
40
0.5
50
180
51
270
0
ARC
8
0
10
200.6755
20
-120.8
40
0.5
50
270
51
0
0
LINE
8
0
10
200.6755
20
-106.3
11
194.6755
21
-106.3
0
LINE
8
0
10
194.6755
20
-121.3
11
200.6755
21
-121.3
0
LINE
8
0
10
194.1755
20
-106.8
11
194.1755
21
-120.8
0
LINE
8
0
10
201.1755
20
-120.8
11
201.1755
21
-106.8
0
ARC
8
0
10
176.7995
20
-106.8
40
0.5
50
0
51
90
0
ARC
8
0
10
170.7995
20
-106.8
40
0.5
50
90
51
180
0
ARC
8
0
10
170.7995
20
-120.8
40
0.5
50
180
51
270
0
ARC
8
0
10
176.7995
20
-120.8
40
0.5
50
270
51
0
0
LINE
8
0
10
176.7995
20
-106.3
11
170.7995
21
-106.3
0
LINE
8
0
10
170.7995
20
-121.3
11
176.7995
21
-121.3
0
LINE
8
0
10
170.2995
20
-106.8
11
170.2995
21
-120.8
0
LINE
8
0
10
177.2995
20
-120.8
11
177.2995
21
-106.8
0
ENDSEC
0
EOF