<svg width="199.7375mm" height="94.9625mm" viewBox="0 0 199.7375 94.9625" xmlns="http://www.w3.org/2000/svg"><g id="svgGroup" stroke-linecap="round" fill-rule="evenodd" font-size="9pt" stroke="#000" stroke-width="0.25mm" fill="none" style="stroke:#000;stroke-width:0.25mm;fill:none"><path d="M 0 13.5 A 0.5 0.5 0 0 0 0.5 14 L 13.5 14 A 0.5 0.5 0 0 0 14 13.5 L 14 0.5 A 0.5 0.5 0 0 0 13.5 0 L 0.5 0 A 0.5 0.5 0 0 0 0 0.5 L 0 13.5 Z M 23.8125 13.5 A 0.5 0.5 0 0 0 24.3125 14 L 37.3125 14 A 0.5 0.5 0 0 0 37.8125 13.5 L 37.8125 0.5 A 0.5 0.5 0 0 0 37.3125 0 L 24.3125 0 A 0.5 0.5 0 0 0 23.8125 0.5 L 23.8125 13.5 Z M 42.8625 13.5 A 0.5 0.5 0 0 0 43.3625 14 L 56.3625 14 A 0.5 0.5 0 0 0 56.8625 13.5 L 56.8625 0.5 A 0.5 0.5 0 0 0 56.3625 0 L 43.3625 0 A 0.5 0.5 0 0 0 42.8625 0.5 L 42.8625 13.5 Z M 66.675 18.2625 A 0.5 0.5 0 0 0 67.175 18.7625 L 80.175 18.7625 A 0.5 0.5 0 0 0 80.675 18.2625 L 80.675 5.2625 A 0.5 0.5 0 0 0 80.175 4.7625 L 67.175 4.7625 A 0.5 0.5 0 0 0 66.675 5.2625 L 66.675 18.2625 Z M 85.725 18.2625 A 0.5 0.5 0 0 0 86.225 18.7625 L 99.225 18.7625 A 0.5 0.5 0 0 0 99.725 18.2625 L 99.725 5.2625 A 0.5 0.5 0 0 0 99.225 4.7625 L 86.225 4.7625 A 0.5 0.5 0 0 0 85.725 5.2625 L 85.725 18.2625 Z M 104.775 18.2625 A 0.5 0.5 0 0 0 105.275 18.7625 L 118.275 18.7625 A 0.5 0.5 0 0 0 118.775 18.2625 L 118.775 5.2625 A 0.5 0.5 0 0 0 118.275 4.7625 L 105.275 4.7625 A 0.5 0.5 0 0 0 104.775 5.2625 L 104.775 18.2625 Z M 123.825 18.2625 A 0.5 0.5 0 0 0 124.325 18.7625 L 137.325 18.7625 A 0.5 0.5 0 0 0 137.825 18.2625 L 137.825 5.2625 A 0.5 0.5 0 0 0 137.325 4.7625 L 124.325 4.7625 A 0.5 0.5 0 0 0 123.825 5.2625 L 123.825 18.2625 Z M 142.875 18.2625 A 0.5 0.5 0 0 0 143.375 18.7625 L 156.375 18.7625 A 0.5 0.5 0 0 0 156.875 18.2625 L 156.875 5.2625 A 0.5 0.5 0 0 0 156.375 4.7625 L 143.375 4.7625 A 0.5 0.5 0 0 0 142.875 5.2625 L 142.875 18.2625 Z M 161.925 18.2625 A 0.5 0.5 0 0 0 162.425 18.7625 L 175.425 18.7625 A 0.5 0.5 0 0 0 175.925 18.2625 L 175.925 5.2625 A 0.5 0.5 0 0 0 175.425 4.7625 L 162.425 4.7625 A 0.5 0.5 0 0 0 161.925 5.2625 L 161.925 18.2625 Z M 180.975 18.2625 A 0.5 0.5 0 0 0 181.475 18.7625 L 194.475 18.7625 A 0.5 0.5 0 0 0 194.975 18.2625 L 194.975 5.2625 A 0.5 0.5 0 0 0 194.475 4.7625 L 181.475 4.7625 A 0.5 0.5 0 0 0 180.975 5.2625 L 180.975 18.2625 Z M 4.7625 37.3125 A 0.5 0.5 0 0 0 5.2625 37.8125 L 18.2625 37.8125 A 0.5 0.5 0 0 0 18.7625 37.3125 L 18.7625 24.3125 A 0.5 0.5 0 0 0 18.2625 23.8125 L 5.2625 23.8125 A 0.5 0.5 0 0 0 4.7625 24.3125 L 4.7625 37.3125 Z M 23.8125 37.3125 A 0.5 0.5 0 0 0 24.3125 37.8125 L 37.3125 37.8125 A 0.5 0.5 0 0 0 37.8125 37.3125 L 37.8125 24.3125 A 0.5 0.5 0 0 0 37.3125 23.8125 L 24.3125 23.8125 A 0.5 0.5 0 0 0 23.8125 24.3125 L 23.8125 37.3125 Z M 42.8625 37.3125 A 0.5 0.5 0 0 0 43.3625 37.8125 L 56.3625 37.8125 A 0.5 0.5 0 0 0 56.8625 37.3125 L 56.8625 24.3125 A 0.5 0.5 0 0 0 56.3625 23.8125 L 43.3625 23.8125 A 0.5 0.5 0 0 0 42.8625 24.3125 L 42.8625 37.3125 Z M 71.4375 37.3125 A 0.5 0.5 0 0 0 71.9375 37.8125 L 84.9375 37.8125 A 0.5 0.5 0 0 0 85.4375 37.3125 L 85.4375 24.3125 A 0.5 0.5 0 0 0 84.9375 23.8125 L 71.9375 23.8125 A 0.5 0.5 0 0 0 71.4375 24.3125 L 71.4375 37.3125 Z M 95.25 37.3125 A 0.5 0.5 0 0 0 95.75 37.8125 L 108.75 37.8125 A 0.5 0.5 0 0 0 109.25 37.3125 L 109.25 24.3125 A 0.5 0.5 0 0 0 108.75 23.8125 L 95.75 23.8125 A 0.5 0.5 0 0 0 95.25 24.3125 L 95.25 37.3125 Z M 114.3 37.3125 A 0.5 0.5 0 0 0 114.8 37.8125 L 127.8 37.8125 A 0.5 0.5 0 0 0 128.3 37.3125 L 128.3 24.3125 A 0.5 0.5 0 0 0 127.8 23.8125 L 114.8 23.8125 A 0.5 0.5 0 0 0 114.3 24.3125 L 114.3 37.3125 Z M 133.35 37.3125 A 0.5 0.5 0 0 0 133.85 37.8125 L 146.85 37.8125 A 0.5 0.5 0 0 0 147.35 37.3125 L 147.35 24.3125 A 0.5 0.5 0 0 0 146.85 23.8125 L 133.85 23.8125 A 0.5 0.5 0 0 0 133.35 24.3125 L 133.35 37.3125 Z M 152.4 37.3125 A 0.5 0.5 0 0 0 152.9 37.8125 L 165.9 37.8125 A 0.5 0.5 0 0 0 166.4 37.3125 L 166.4 24.3125 A 0.5 0.5 0 0 0 165.9 23.8125 L 152.9 23.8125 A 0.5 0.5 0 0 0 152.4 24.3125 L 152.4 37.3125 Z M 171.45 37.3125 A 0.5 0.5 0 0 0 171.95 37.8125 L 184.95 37.8125 A 0.5 0.5 0 0 0 185.45 37.3125 L 185.45 24.3125 A 0.5 0.5 0 0 0 184.95 23.8125 L 171.95 23.8125 A 0.5 0.5 0 0 0 171.45 24.3125 L 171.45 37.3125 Z M 4.7625 56.3625 A 0.5 0.5 0 0 0 5.2625 56.8625 L 18.2625 56.8625 A 0.5 0.5 0 0 0 18.7625 56.3625 L 18.7625 43.3625 A 0.5 0.5 0 0 0 18.2625 42.8625 L 5.2625 42.8625 A 0.5 0.5 0 0 0 4.7625 43.3625 L 4.7625 56.3625 Z M 23.8125 56.3625 A 0.5 0.5 0 0 0 24.3125 56.8625 L 37.3125 56.8625 A 0.5 0.5 0 0 0 37.8125 56.3625 L 37.8125 43.3625 A 0.5 0.5 0 0 0 37.3125 42.8625 L 24.3125 42.8625 A 0.5 0.5 0 0 0 23.8125 43.3625 L 23.8125 56.3625 Z M 42.8625 56.3625 A 0.5 0.5 0 0 0 43.3625 56.8625 L 56.3625 56.8625 A 0.5 0.5 0 0 0 56.8625 56.3625 L 56.8625 43.3625 A 0.5 0.5 0 0 0 56.3625 42.8625 L 43.3625 42.8625 A 0.5 0.5 0 0 0 42.8625 43.3625 L 42.8625 56.3625 Z M 69.05625 56.3625 A 0.5 0.5 0 0 0 69.55625 56.8625 L 82.55625 56.8625 A 0.5 0.5 0 0 0 83.05625 56.3625 L 83.05625 43.3625 A 0.5 0.5 0 0 0 82.55625 42.8625 L 69.55625 42.8625 A 0.5 0.5 0 0 0 69.05625 43.3625 L 69.05625 56.3625 Z M 73.81875 56.3625 A 0.5 0.5 0 0 0 74.31875 56.8625 L 87.31875 56.8625 A 0.5 0.5 0 0 0 87.81875 56.3625 L 87.81875 43.3625 A 0.5 0.5 0 0 0 87.31875 42.8625 L 74.31875 42.8625 A 0.5 0.5 0 0 0 73.81875 43.3625 L 73.81875 56.3625 Z M 100.0125 56.3625 A 0.5 0.5 0 0 0 100.5125 56.8625 L 113.5125 56.8625 A 0.5 0.5 0 0 0 114.0125 56.3625 L 114.0125 43.3625 A 0.5 0.5 0 0 0 113.5125 42.8625 L 100.5125 42.8625 A 0.5 0.5 0 0 0 100.0125 43.3625 L 100.0125 56.3625 Z M 119.0625 56.3625 A 0.5 0.5 0 0 0 119.5625 56.8625 L 132.5625 56.8625 A 0.5 0.5 0 0 0 133.0625 56.3625 L 133.0625 43.3625 A 0.5 0.5 0 0 0 132.5625 42.8625 L 119.5625 42.8625 A 0.5 0.5 0 0 0 119.0625 43.3625 L 119.0625 56.3625 Z M 138.1125 56.3625 A 0.5 0.5 0 0 0 138.6125 56.8625 L 151.6125 56.8625 A 0.5 0.5 0 0 0 152.1125 56.3625 L 152.1125 43.3625 A 0.5 0.5 0 0 0 151.6125 42.8625 L 138.6125 42.8625 A 0.5 0.5 0 0 0 138.1125 43.3625 L 138.1125 56.3625 Z M 157.1625 56.3625 A 0.5 0.5 0 0 0 157.6625 56.8625 L 170.6625 56.8625 A 0.5 0.5 0 0 0 171.1625 56.3625 L 171.1625 43.3625 A 0.5 0.5 0 0 0 170.6625 42.8625 L 157.6625 42.8625 A 0.5 0.5 0 0 0 157.1625 43.3625 L 157.1625 56.3625 Z M 176.2125 56.3625 A 0.5 0.5 0 0 0 176.7125 56.8625 L 189.7125 56.8625 A 0.5 0.5 0 0 0 190.2125 56.3625 L 190.2125 43.3625 A 0.5 0.5 0 0 0 189.7125 42.8625 L 176.7125 42.8625 A 0.5 0.5 0 0 0 176.2125 43.3625 L 176.2125 56.3625 Z M 4.7625 75.4125 A 0.5 0.5 0 0 0 5.2625 75.9125 L 18.2625 75.9125 A 0.5 0.5 0 0 0 18.7625 75.4125 L 18.7625 62.4125 A 0.5 0.5 0 0 0 18.2625 61.9125 L 5.2625 61.9125 A 0.5 0.5 0 0 0 4.7625 62.4125 L 4.7625 75.4125 Z M 23.8125 75.4125 A 0.5 0.5 0 0 0 24.3125 75.9125 L 37.3125 75.9125 A 0.5 0.5 0 0 0 37.8125 75.4125 L 37.8125 62.4125 A 0.5 0.5 0 0 0 37.3125 61.9125 L 24.3125 61.9125 A 0.5 0.5 0 0 0 23.8125 62.4125 L 23.8125 75.4125 Z M 42.8625 75.4125 A 0.5 0.5 0 0 0 43.3625 75.9125 L 56.3625 75.9125 A 0.5 0.5 0 0 0 56.8625 75.4125 L 56.8625 62.4125 A 0.5 0.5 0 0 0 56.3625 61.9125 L 43.3625 61.9125 A 0.5 0.5 0 0 0 42.8625 62.4125 L 42.8625 75.4125 Z M 78.58125 75.4125 A 0.5 0.5 0 0 0 79.08125 75.9125 L 92.08125 75.9125 A 0.5 0.5 0 0 0 92.58125 75.4125 L 92.58125 62.4125 A 0.5 0.5 0 0 0 92.08125 61.9125 L 79.08125 61.9125 A 0.5 0.5 0 0 0 78.58125 62.4125 L 78.58125 75.4125 Z M 109.5375 75.4125 A 0.5 0.5 0 0 0 110.0375 75.9125 L 123.0375 75.9125 A 0.5 0.5 0 0 0 123.5375 75.4125 L 123.5375 62.4125 A 0.5 0.5 0 0 0 123.0375 61.9125 L 110.0375 61.9125 A 0.5 0.5 0 0 0 109.5375 62.4125 L 109.5375 75.4125 Z M 128.5875 75.4125 A 0.5 0.5 0 0 0 129.0875 75.9125 L 142.0875 75.9125 A 0.5 0.5 0 0 0 142.5875 75.4125 L 142.5875 62.4125 A 0.5 0.5 0 0 0 142.0875 61.9125 L 129.0875 61.9125 A 0.5 0.5 0 0 0 128.5875 62.4125 L 128.5875 75.4125 Z M 147.6375 75.4125 A 0.5 0.5 0 0 0 148.1375 75.9125 L 161.1375 75.9125 A 0.5 0.5 0 0 0 161.6375 75.4125 L 161.6375 62.4125 A 0.5 0.5 0 0 0 161.1375 61.9125 L 148.1375 61.9125 A 0.5 0.5 0 0 0 147.6375 62.4125 L 147.6375 75.4125 Z M 166.6875 75.4125 A 0.5 0.5 0 0 0 167.1875 75.9125 L 180.1875 75.9125 A 0.5 0.5 0 0 0 180.6875 75.4125 L 180.6875 62.4125 A 0.5 0.5 0 0 0 180.1875 61.9125 L 167.1875 61.9125 A 0.5 0.5 0 0 0 166.6875 62.4125 L 166.6875 75.4125 Z M 185.7375 75.4125 A 0.5 0.5 0 0 0 186.2375 75.9125 L 199.2375 75.9125 A 0.5 0.5 0 0 0 199.7375 75.4125 L 199.7375 62.4125 A 0.5 0.5 0 0 0 199.2375 61.9125 L 186.2375 61.9125 A 0.5 0.5 0 0 0 185.7375 62.4125 L 185.7375 75.4125 Z M 4.7625 94.4625 A 0.5 0.5 0 0 0 5.2625 94.9625 L 18.2625 94.9625 A 0.5 0.5 0 0 0 18.7625 94.4625 L 18.7625 81.4625 A 0.5 0.5 0 0 0 18.2625 80.9625 L 5.2625 80.9625 A 0.5 0.5 0 0 0 4.7625 81.4625 L 4.7625 94.4625 Z M 23.8125 94.4625 A 0.5 0.5 0 0 0 24.3125 94.9625 L 37.3125 94.9625 A 0.5 0.5 0 0 0 37.8125 94.4625 L 37.8125 81.4625 A 0.5 0.5 0 0 0 37.3125 80.9625 L 24.3125 80.9625 A 0.5 0.5 0 0 0 23.8125 81.4625 L 23.8125 94.4625 Z M 42.8625 94.4625 A 0.5 0.5 0 0 0 43.3625 94.9625 L 56.3625 94.9625 A 0.5 0.5 0 0 0 56.8625 94.4625 L 56.8625 81.4625 A 0.5 0.5 0 0 0 56.3625 80.9625 L 43.3625 80.9625 A 0.5 0.5 0 0 0 42.8625 81.4625 L 42.8625 94.4625 Z M 71.4375 94.4625 A 0.5 0.5 0 0 0 71.9375 94.9625 L 84.9375 94.9625 A 0.5 0.5 0 0 0 85.4375 94.4625 L 85.4375 81.4625 A 0.5 0.5 0 0 0 84.9375 80.9625 L 71.9375 80.9625 A 0.5 0.5 0 0 0 71.4375 81.4625 L 71.4375 94.4625 Z M 97.63125 94.4625 A 0.5 0.5 0 0 0 98.13125 94.9625 L 111.13125 94.9625 A 0.5 0.5 0 0 0 111.63125 94.4625 L 111.63125 81.4625 A 0.5 0.5 0 0 0 111.13125 80.9625 L 98.13125 80.9625 A 0.5 0.5 0 0 0 97.63125 81.4625 L 97.63125 94.4625 Z M 121.44375 94.4625 A 0.5 0.5 0 0 0 121.94375 94.9625 L 134.94375 94.9625 A 0.5 0.5 0 0 0 135.44375 94.4625 L 135.44375 81.4625 A 0.5 0.5 0 0 0 134.94375 80.9625 L 121.94375 80.9625 A 0.5 0.5 0 0 0 121.44375 81.4625 L 121.44375 94.4625 Z M 145.25625 94.4625 A 0.5 0.5 0 0 0 145.75625 94.9625 L 158.75625 94.9625 A 0.5 0.5 0 0 0 159.25625 94.4625 L 159.25625 81.4625 A 0.5 0.5 0 0 0 158.75625 80.9625 L 145.75625 80.9625 A 0.5 0.5 0 0 0 145.25625 81.4625 L 145.25625 94.4625 Z M 176.2125 94.4625 A 0.5 0.5 0 0 0 176.7125 94.9625 L 189.7125 94.9625 A 0.5 0.5 0 0 0 190.2125 94.4625 L 190.2125 81.4625 A 0.5 0.5 0 0 0 189.7125 80.9625 L 176.7125 80.9625 A 0.5 0.5 0 0 0 176.2125 81.4625 L 176.2125 94.4625 Z M 70.14325 76.4125 A 0.5 0.5 0 0 0 70.64325 76.9125 L 76.64325 76.9125 A 0.5 0.5 0 0 0 77.14325 76.4125 L 77.14325 62.4125 A 0.5 0.5 0 0 0 76.64325 61.9125 L 70.64325 61.9125 A 0.5 0.5 0 0 0 70.14325 62.4125 L 70.14325 76.4125 Z M 94.01925 76.4125 A 0.5 0.5 0 0 0 94.51925 76.9125 L 100.51925 76.9125 A 0.5 0.5 0 0 0 101.01925 76.4125 L 101.01925 62.4125 A 0.5 0.5 0 0 0 100.51925 61.9125 L 94.51925 61.9125 A 0.5 0.5 0 0 0 94.01925 62.4125 L 94.01925 76.4125 Z M 198.6505 80.4625 A 0.5 0.5 0 0 0 198.1505 79.9625 L 192.1505 79.9625 A 0.5 0.5 0 0 0 191.6505 80.4625 L 191.6505 94.4625 A 0.5 0.5 0 0 0 192.1505 94.9625 L 198.1505 94.9625 A 0.5 0.5 0 0 0 198.6505 94.4625 L 198.6505 80.4625 Z M 174.7745 80.4625 A 0.5 0.5 0 0 0 174.2745 79.9625 L 168.2745 79.9625 A 0.5 0.5 0 0 0 167.7745 80.4625 L 167.7745 94.4625 A 0.5 0.5 0 0 0 168.2745 94.9625 L 174.2745 94.9625 A 0.5 0.5 0 0 0 174.7745 94.4625 L 174.7745 80.4625 Z M 65.8375 37.3125 A 0.5 0.5 0 0 0 66.3375 37.8125 L 67.3375 37.8125 A 0.5 0.5 0 0 0 67.8375 37.3125 L 67.8375 24.3125 A 0.5 0.5 0 0 0 67.3375 23.8125 L 66.3375 23.8125 A 0.5 0.5 0 0 0 65.8375 24.3125 L 65.8375 37.3125 Z M 89.0375 37.3125 A 0.5 0.5 0 0 0 89.5375 37.8125 L 90.5375 37.8125 A 0.5 0.5 0 0 0 91.0375 37.3125 L 91.0375 24.3125 A 0.5 0.5 0 0 0 90.5375 23.8125 L 89.5375 23.8125 A 0.5 0.5 0 0 0 89.0375 24.3125 L 89.0375 37.3125 Z M 65.8375 94.4625 A 0.5 0.5 0 0 0 66.3375 94.9625 L 67.3375 94.9625 A 0.5 0.5 0 0 0 67.8375 94.4625 L 67.8375 81.4625 A 0.5 0.5 0 0 0 67.3375 80.9625 L 66.3375 80.9625 A 0.5 0.5 0 0 0 65.8375 81.4625 L 65.8375 94.4625 Z M 89.0375 94.4625 A 0.5 0.5 0 0 0 89.5375 94.9625 L 90.5375 94.9625 A 0.5 0.5 0 0 0 91.0375 94.4625 L 91.0375 81.4625 A 0.5 0.5 0 0 0 90.5375 80.9625 L 89.5375 80.9625 A 0.5 0.5 0 0 0 89.0375 81.4625 L 89.0375 94.4625 Z" vector-effect="non-scaling-stroke"/></g></svg>