0
SECTION
2
HEADER
9
$INSUNITS
70
4
9
$ACADVER
1
AC1014
9
$HANDSEED
5
FFFF
0
ENDSEC
0
SECTION
2
TABLES
0
TABLE
2
VPORT
5
8
100
AcDbSymbolTable
0
ENDTAB
0
TABLE
2
LTYPE
5
5
100
AcDbSymbolTable
0
LTYPE
5
14
100
AcDbSymbolTableRecord
100
AcDbLinetypeTableRecord
2
BYBLOCK
70
0
0
LTYPE
5
15
100
AcDbSymbolTableRecord
100
AcDbLinetypeTableRecord
2
BYLAYER
70
0
0
ENDTAB
0
TABLE
2
LAYER
5
2
100
AcDbSymbolTable
70
2
0
LAYER
5
50
100
AcDbSymbolTableRecord
100
AcDbLayerTableRecord
2
0
70
0
6
CONTINUOUS
0
ENDTAB
0
TABLE
2
STYLE
5
3
100
AcDbSymbolTable
70
1
0
STYLE
5
11
100
AcDbSymbolTableRecord
100
AcDbTextStyleTableRecord
2
STANDARD
70
0
0
ENDTAB
0
TABLE
2
VIEW
5
6
100
AcDbSymbolTable
70
0
0
ENDTAB
0
TABLE
2
UCS
5
7
100
AcDbSymbolTable
70
0
0
ENDTAB
0
TABLE
2
APPID
5
9
100
AcDbSymbolTable
70
2
0
APPID
5
12
100
AcDbSymbolTableRecord
100
AcDbRegAppTableRecord
2
ACAD
70
0
0
ENDTAB
0
TABLE
2
DIMSTYLE
5
A
100
AcDbSymbolTable
70
1
0
ENDTAB
0
TABLE
2
BLOCK_RECORD
5
1
100
AcDbSymbolTable
70
1
0
BLOCK_RECORD
5
1F
100
AcDbSymbolTableRecord
100
AcDbBlockTableRecord
2
*MODEL_SPACE
0
BLOCK_RECORD
5
1B
100
AcDbSymbolTableRecord
100
AcDbBlockTableRecord
2
*PAPER_SPACE
0
ENDTAB
0
ENDSEC
0
SECTION
2
BLOCKS
0
BLOCK
5
20
100
AcDbEntity
100
AcDbBlockBegin
2
*MODEL_SPACE
0
ENDBLK
5
21
100
AcDbEntity
100
AcDbBlockEnd
0
BLOCK
5
1C
100
AcDbEntity
100
AcDbBlockBegin
2
*PAPER_SPACE
0
ENDBLK
5
1D
100
AcDbEntity
100
AcDbBlockEnd
0
ENDSEC
0
SECTION
2
ENTITIES
0
LWPOLYLINE
5
100
100
AcDbEntity
8
0
100
AcDbPolyline
90
8
70
1
43
0.0
10
-159.95600000000002
20
14.472000000000003
42
0.41421356237309503
10
-158.95600000000002
20
13.472000000000005
10
-144.25600000000003
20
13.472000000000005
42
0.41421356237309503
10
-143.25600000000003
20
14.472000000000003
10
-143.25600000000003
20
25.072000000000003
42
0.41421356237309503
10
-144.25600000000003
20
26.071999999999996
10
-158.95600000000002
20
26.071999999999996
42
0.41421356237309503
10
-159.95600000000002
20
25.071999999999996
0
LWPOLYLINE
5
101
100
AcDbEntity
8
0
100
AcDbPolyline
90
8
70
1
43
0.0
10
-179.00600000000003
20
14.472000000000003
42
0.41421356237309503
10
-178.00600000000003
20
13.472000000000005
10
-163.30600000000004
20
13.472000000000005
42
0.41421356237309503
10
-162.30600000000004
20
14.472000000000003
10
-162.30600000000004
20
25.072000000000003
42
0.41421356237309503
10
-163.30600000000004
20
26.071999999999996
10
-178.00600000000003
20
26.071999999999996
42
0.41421356237309503
10
-179.00600000000003
20
25.071999999999996
0
LWPOLYLINE
5
102
100
AcDbEntity
8
0
100
AcDbPolyline
90
36
70
1
43
0.0
10
-202.6875
20
132.90000000000001
42
0.41421356237309503
10
-204.6875
20
130.90000000000001
10
-204.6875
20
87.824999999999989
42
0.41421356237309764
10
-202.68749999999997
20
85.824999999999974
10
-197.16250000000002
20
85.824999999999989
42
-0.41421356237309503
10
-195.16250000000002
20
83.825000000000003
10
-195.16250000000002
20
68.775000000000006
42
0.41421356237309631
10
-193.16250000000002
20
66.775000000000006
10
-192.39999999999998
20
66.775000000000006
42
-0.41421356237309503
10
-190.39999999999998
20
64.775000000000006
10
-190.40000000000003
20
49.524999999999999
42
-0.41421356237309503
10
-192.40000000000003
20
47.524999999999991
10
-197.92500000000004
20
47.524999999999991
42
0.41421356237309631
10
-199.92500000000004
20
45.525000000000006
10
-199.92500000000004
20
28.050000000000011
42
0.41421356237309698
10
-197.92500000000004
20
26.050000000000004
10
-186.05600000000004
20
26.049999999999976
42
-0.41421356237309503
10
-184.05600000000004
20
24.049999999999983
10
-184.05600000000004
20
8.5999999999999943
42
0.41421356237309664
10
-182.05600000000004
20
6.5999999999999908
10
-121.15600000000001
20
6.6000000000000014
42
0.41421356237309537
10
-119.15600000000001
20
8.6000000000000014
10
-119.15600000000001
20
24.049999999999969
42
-0.41421356237309503
10
-117.15600000000002
20
26.049999999999969
10
-66.77731239591688
20
26.050000000000011
42
-0.1989123673796572
10
-65.363098833543788
20
25.464213562373111
10
-61.7721717087976
20
21.873286437626909
42
0.19891236737965565
10
-60.357958146424494
20
21.287500000000005
10
-23.287500000000001
20
21.287500000000001
42
0.4142135623730937
10
-21.287500000000001
20
23.287500000000001
10
-21.287500000000001
20
40.337500000000006
42
-0.41421356237309503
10
-19.287500000000001
20
42.337500000000006
10
3.3124999999999982
20
42.337500000000006
42
0.4142135623730932
10
5.3125000000000044
20
44.337499999999999
10
5.3125
20
130.90000000000001
42
0.41421356237309503
10
3.3125000000000067
20
132.90000000000001
0
LWPOLYLINE
5
103
100
AcDbEntity
8
0
100
AcDbPolyline
90
8
70
1
43
0.0
10
-163.66250000000002
20
102.25000000000001
42
0.41421356237310542
10
-164.16249999999997
20
101.75
10
-164.16250000000002
20
88.75
42
0.41421356237310542
10
-163.66250000000002
20
88.25
10
-150.66249999999999
20
88.25
42
0.41421356237309503
10
-150.16249999999999
20
88.75
10
-150.16249999999999
20
101.75
42
0.41421356237309503
10
-150.66249999999999
20
102.25000000000001
0
LWPOLYLINE
5
104
100
AcDbEntity
8
0
100
AcDbPolyline
90
8
70
1
43
0.0
10
-73.16825
20
88.25
42
0.41421356237309503
10
-72.66825
20
88.75
10
-72.66825
20
102.75
42
0.41421356237310542
10
-73.168250000000015
20
103.25
10
-79.16825
20
103.25000000000001
42
0.41421356237307422
10
-79.66825
20
102.75
10
-79.66825
20
88.75
42
0.41421356237309503
10
-79.16825
20
88.25
0
LWPOLYLINE
5
105
100
AcDbEntity
8
0
100
AcDbPolyline
90
8
70
1
43
0.0
10
-103.54425000000003
20
88.75
10
-103.54425000000003
20
102.75
42
-0.41421356237307422
10
-103.04425000000002
20
103.25000000000001
10
-97.044250000000005
20
103.25000000000001
42
-0.41421356237307422
10
-96.544250000000005
20
102.75
10
-96.544250000000005
20
88.75
42
-0.41421356237309503
10
-97.044250000000005
20
88.25
10
-103.04425000000002
20
88.25
42
-0.41421356237309503
0
LWPOLYLINE
5
106
100
AcDbEntity
8
0
100
AcDbPolyline
90
8
70
1
43
0.0
10
-81.606250000000017
20
88.25
10
-94.606250000000003
20
88.25
42
-0.41421356237309503
10
-95.106250000000017
20
88.75
10
-95.106250000000017
20
101.75
42
-0.41421356237309503
10
-94.606250000000003
20
102.25000000000001
10
-81.606250000000017
20
102.25000000000001
42
-0.41421356237307422
10
-81.106250000000003
20
101.75
10
-81.106250000000003
20
88.75
42
-0.41421356237307422
0
LWPOLYLINE
5
107
100
AcDbEntity
8
0
100
AcDbPolyline
90
8
70
1
43
0.0
10
-201.76249999999999
20
102.25000000000001
10
-188.76249999999999
20
102.25000000000003
42
-0.41421356237310542
10
-188.26249999999999
20
101.75
10
-188.26250000000002
20
88.75
42
-0.41421356237310542
10
-188.76249999999999
20
88.25
10
-201.76249999999999
20
88.25
42
-0.41421356237313667
10
-202.26249999999999
20
88.75
10
-202.26249999999999
20
101.75
42
-0.41421356237313667
0
LWPOLYLINE
5
108
100
AcDbEntity
8
0
100
AcDbPolyline
90
8
70
1
43
0.0
10
-145.11250000000001
20
88.75
10
-145.11250000000001
20
101.75
42
-0.41421356237307422
10
-144.61250000000001
20
102.25000000000001
10
-131.61250000000001
20
102.25000000000001
42
-0.41421356237309503
10
-131.11250000000001
20
101.75
10
-131.11250000000001
20
88.75
42
-0.41421356237309503
10
-131.61250000000001
20
88.25
10
-144.61250000000001
20
88.25
42
-0.41421356237307422
0
LWPOLYLINE
5
109
100
AcDbEntity
8
0
100
AcDbPolyline
90
8
70
1
43
0.0
10
-26.837499999999999
20
107.30000000000001
10
-39.837500000000006
20
107.30000000000001
42
-0.41421356237310542
10
-40.337500000000006
20
107.80000000000001
10
-40.33750000000002
20
120.8
42
-0.41421356237306123
10
-39.837499999999999
20
121.30000000000001
10
-26.837499999999999
20
121.29999999999998
42
-0.41421356237310025
10
-26.337499999999999
20
120.8
10
-26.337499999999995
20
107.80000000000001
42
-0.41421356237309243
0
LWPOLYLINE
5
110
100
AcDbEntity
8
0
100
AcDbPolyline
90
8
70
1
43
0.0
10
-58.88750000000001
20
121.30000000000001
42
0.41421356237307422
10
-59.387500000000017
20
120.8
10
-59.387500000000003
20
107.80000000000001
42
0.4142135623730846
10
-58.887500000000017
20
107.30000000000001
10
-45.887500000000003
20
107.30000000000001
42
0.41421356237309503
10
-45.387500000000003
20
107.80000000000001
10
-45.387500000000003
20
120.8
42
0.41421356237310542
10
-45.88750000000001
20
121.29999999999998
0
LWPOLYLINE
5
111
100
AcDbEntity
8
0
100
AcDbPolyline
90
8
70
1
43
0.0
10
-126.06250000000001
20
88.75
42
0.41421356237307422
10
-125.5625
20
88.25
10
-112.56250000000001
20
88.25
42
0.41421356237309503
10
-112.0625
20
88.75
10
-112.0625
20
101.75
42
0.41421356237309503
10
-112.56250000000001
20
102.25000000000001
10
-125.5625
20
102.25000000000001
42
0.41421356237307422
10
-126.06250000000001
20
101.75
0
LWPOLYLINE
5
112
100
AcDbEntity
8
0
100
AcDbPolyline
90
8
70
1
43
0.0
10
-169.71250000000001
20
88.25
10
-182.71250000000003
20
88.249999999999972
42
-0.41421356237310542
10
-183.21250000000003
20
88.75
10
-183.21249999999998
20
101.75
42
-0.41421356237310542
10
-182.71250000000003
20
102.25000000000001
10
-169.71250000000001
20
102.25000000000001
42
-0.41421356237313667
10
-169.21250000000001
20
101.75
10
-169.21250000000001
20
88.75
42
-0.41421356237313667
0
LWPOLYLINE
5
113
100
AcDbEntity
8
0
100
AcDbPolyline
90
8
70
1
43
0.0
10
-87.46250000000002
20
121.30000000000001
10
-74.462500000000006
20
121.29999999999998
42
-0.41421356237310542
10
-73.962500000000006
20
120.8
10
-73.962499999999991
20
107.80000000000001
42
-0.41421356237310025
10
-74.462500000000006
20
107.30000000000001
10
-87.46250000000002
20
107.30000000000001
42
-0.41421356237307422
10
-87.96250000000002
20
107.80000000000001
10
-87.96250000000002
20
120.8
42
-0.4142135623730534
0
LWPOLYLINE
5
114
100
AcDbEntity
8
0
100
AcDbPolyline
90
8
70
1
43
0.0
10
-192.73750000000004
20
107.80000000000001
42
0.41421356237310542
10
-192.23750000000001
20
107.29999999999998
10
-179.23750000000001
20
107.30000000000001
42
0.41421356237313667
10
-178.73750000000001
20
107.80000000000001
10
-178.73750000000001
20
120.8
42
0.41421356237309503
10
-179.23750000000001
20
121.30000000000001
10
-192.23750000000001
20
121.30000000000001
42
0.4142135623730846
10
-192.73750000000004
20
120.8
0
LWPOLYLINE
5
115
100
AcDbEntity
8
0
100
AcDbPolyline
90
8
70
1
43
0.0
10
-194.67550000000003
20
106.29999999999998
10
-200.6755
20
106.29999999999998
42
-0.41421356237313667
10
-201.1755
20
106.8
10
-201.1755
20
120.8
42
-0.41421356237309503
10
-200.6755
20
121.30000000000001
10
-194.67550000000003
20
121.29999999999998
42
-0.4142135623730846
10
-194.17550000000003
20
120.8
10
-194.17550000000006
20
106.8
42
-0.41421356237310542
0
LWPOLYLINE
5
116
100
AcDbEntity
8
0
100
AcDbPolyline
90
8
70
1
43
0.0
10
-7.2874999999999979
20
120.8
10
-7.2874999999999961
20
107.80000000000001
42
-0.4142135623730937
10
-7.7875000000000005
20
107.30000000000001
10
-20.787499999999994
20
107.30000000000001
42
-0.41421356237311063
10
-21.287500000000001
20
107.80000000000001
10
-21.287500000000005
20
120.8
42
-0.41421356237307161
10
-20.787500000000001
20
121.30000000000001
10
-7.787500000000005
20
121.30000000000001
42
-0.41421356237307683
0
LWPOLYLINE
5
117
100
AcDbEntity
8
0
100
AcDbPolyline
90
8
70
1
43
0.0
10
-161.28125
20
121.30000000000001
42
0.41421356237309503
10
-161.78125
20
120.8
10
-161.78125
20
107.80000000000001
42
0.41421356237313667
10
-161.28125
20
107.30000000000001
10
-148.28125
20
107.30000000000001
42
0.41421356237309503
10
-147.78125
20
107.80000000000001
10
-147.78125
20
120.8
42
0.41421356237307422
10
-148.28125
20
121.30000000000001
0
LWPOLYLINE
5
118
100
AcDbEntity
8
0
100
AcDbPolyline
90
8
70
1
43
0.0
10
-68.362500000000011
20
120.8
42
0.41421356237310542
10
-68.862500000000011
20
121.29999999999998
10
-69.862499999999997
20
121.30000000000001
42
0.41421356237307944
10
-70.362499999999983
20
120.8
10
-70.362499999999997
20
107.80000000000001
42
0.41421356237310542
10
-69.862499999999997
20
107.30000000000001
10
-68.862500000000011
20
107.30000000000001
42
0.41421356237310025
10
-68.362499999999997
20
107.80000000000001
0
LWPOLYLINE
5
119
100
AcDbEntity
8
0
100
AcDbPolyline
90
8
70
1
43
0.0
10
-170.29949999999999
20
120.8
10
-170.29949999999999
20
106.8
42
-0.41421356237313667
10
-170.79949999999999
20
106.29999999999998
10
-176.79950000000002
20
106.29999999999998
42
-0.41421356237313667
10
-177.29950000000002
20
106.8
10
-177.29950000000002
20
120.8
42
-0.41421356237309503
10
-176.79950000000002
20
121.30000000000001
10
-170.79949999999999
20
121.30000000000001
42
-0.41421356237309503
0
LWPOLYLINE
5
120
100
AcDbEntity
8
0
100
AcDbPolyline
90
8
70
1
43
0.0
10
-93.562500000000014
20
107.80000000000001
42
0.41421356237307422
10
-93.0625
20
107.30000000000001
10
-92.0625
20
107.30000000000001
42
0.41421356237309503
10
-91.5625
20
107.80000000000001
10
-91.5625
20
120.8
42
0.41421356237307422
10
-92.0625
20
121.30000000000001
10
-93.0625
20
121.30000000000001
42
0.4142135623730534
10
-93.562500000000014
20
120.8
0
LWPOLYLINE
5
121
100
AcDbEntity
8
0
100
AcDbPolyline
90
8
70
1
43
0.0
10
-100.15625
20
120.8
10
-100.15625
20
107.80000000000001
42
-0.41421356237309503
10
-100.65625
20
107.30000000000001
10
-113.65625000000001
20
107.30000000000001
42
-0.41421356237309503
10
-114.15625000000003
20
107.80000000000001
10
-114.15625000000003
20
120.8
42
-0.41421356237307422
10
-113.65625000000001
20
121.30000000000001
10
-100.65625
20
121.30000000000001
42
-0.41421356237307422
0
CIRCLE
5
122
100
AcDbEntity
8
0
100
AcDbCircle
10
2.3125000000000004
20
45.337500000000006
30
0
40
1.4500000000000002
210
0
220
-0
230
1
0
LWPOLYLINE
5
123
100
AcDbEntity
8
0
100
AcDbPolyline
90
8
70
1
43
0.0
10
-124.46875
20
107.30000000000001
10
-137.46875
20
107.30000000000001
42
-0.41421356237307422
10
-137.96875000000003
20
107.80000000000001
10
-137.96875000000003
20
120.8
42
-0.4142135623730534
10
-137.46875
20
121.30000000000001
10
-124.46875
20
121.30000000000001
42
-0.4142135623730534
10
-123.96875
20
120.8
10
-123.96875
20
107.80000000000001
42
-0.41421356237307422
0
CIRCLE
5
124
100
AcDbEntity
8
0
100
AcDbCircle
10
-181.05600000000004
20
9.6000000000000014
30
0
40
1.4499999999999957
210
0
220
-0
230
1
0
CIRCLE
5
125
100
AcDbEntity
8
0
100
AcDbCircle
10
-122.15600000000002
20
9.6000000000000014
30
0
40
1.4499999999999957
210
0
220
-0
230
1
0
CIRCLE
5
126
100
AcDbEntity
8
0
100
AcDbCircle
10
2.3125
20
129.90000000000003
30
0
40
1.4499999999999988
210
0
220
-0
230
1
0
CIRCLE
5
127
100
AcDbEntity
8
0
100
AcDbCircle
10
-201.6875
20
129.89999999999998
30
0
40
1.4499999999999957
210
0
220
-0
230
1
0
CIRCLE
5
128
100
AcDbEntity
8
0
100
AcDbCircle
10
-99.6875
20
129.89999999999998
30
0
40
1.4499999999999957
210
0
220
-0
230
1
0
CIRCLE
5
129
100
AcDbEntity
8
0
100
AcDbCircle
10
-64.293749999999989
20
129.89999999999998
30
0
40
1.4499999999999957
210
0
220
-0
230
1
0
LWPOLYLINE
5
130
100
AcDbEntity
8
0
100
AcDbPolyline
90
8
70
1
43
0.0
10
-39.837500000000006
20
102.25000000000001
10
-26.837499999999999
20
102.25000000000001
42
-0.41421356237310542
10
-26.337499999999999
20
101.75
10
-26.337499999999995
20
88.75
42
-0.41421356237309243
10
-26.837499999999999
20
88.25
10
-39.837500000000006
20
88.25
42
-0.41421356237310542
10
-40.337500000000006
20
88.75
10
-40.337500000000006
20
101.75
42
-0.41421356237308982
0
LWPOLYLINE
5
131
100
AcDbEntity
8
0
100
AcDbPolyline
90
8
70
1
43
0.0
10
-45.887500000000003
20
88.25
42
0.41421356237309503
10
-45.387499999999996
20
88.75
10
-45.387500000000003
20
101.75
42
0.41421356237309503
10
-45.88750000000001
20
102.25000000000001
10
-58.88750000000001
20
102.25000000000001
42
0.41421356237309503
10
-59.387500000000024
20
101.75
10
-59.387500000000003
20
88.75
42
0.4142135623730846
10
-58.887500000000017
20
88.25
0
LWPOLYLINE
5
132
100
AcDbEntity
8
0
100
AcDbPolyline
90
8
70
1
43
0.0
10
-45.88750000000001
20
69.200000000000003
10
-58.887500000000017
20
69.200000000000003
42
-0.41421356237308982
10
-59.387500000000003
20
69.700000000000003
10
-59.387500000000017
20
82.700000000000017
42
-0.41421356237307422
10
-58.88750000000001
20
83.200000000000017
10
-45.88750000000001
20
83.200000000000003
42
-0.41421356237310542
10
-45.387500000000003
20
82.700000000000017
10
-45.387500000000003
20
69.700000000000003
42
-0.41421356237310025
0
LWPOLYLINE
5
133
100
AcDbEntity
8
0
100
AcDbPolyline
90
8
70
1
43
0.0
10
-173.1875
20
83.200000000000017
10
-160.18750000000006
20
83.200000000000003
42
-0.4142135623730846
10
-159.6875
20
82.700000000000017
10
-159.6875
20
69.700000000000003
42
-0.41421356237309503
10
-160.1875
20
69.200000000000003
10
-173.1875
20
69.200000000000017
42
-0.41421356237312623
10
-173.68750000000003
20
69.700000000000003
10
-173.68750000000006
20
82.700000000000017
42
-0.4142135623730846
0
LWPOLYLINE
5
134
100
AcDbEntity
8
0
100
AcDbPolyline
90
8
70
1
43
0.0
10
-178.73750000000001
20
82.700000000000017
42
0.41421356237309503
10
-179.23750000000001
20
83.200000000000017
10
-192.23750000000001
20
83.200000000000017
42
0.4142135623730846
10
-192.73750000000004
20
82.700000000000017
10
-192.73750000000004
20
69.700000000000003
42
0.41421356237312623
10
-192.23750000000001
20
69.200000000000003
10
-179.23750000000001
20
69.200000000000003
42
0.41421356237307422
10
-178.73750000000001
20
69.700000000000003
0
LWPOLYLINE
5
135
100
AcDbEntity
8
0
100
AcDbPolyline
90
8
70
1
43
0.0
10
-21.287500000000001
20
88.75
10
-21.287500000000005
20
101.75
42
-0.41421356237309243
10
-20.787500000000001
20
102.25000000000001
10
-7.787500000000005
20
102.25000000000003
42
-0.41421356237310802
10
-7.2874999999999996
20
101.75
10
-7.2874999999999961
20
88.75
42
-0.4142135623730937
10
-7.7875000000000005
20
88.25
10
-20.787499999999994
20
88.25
42
-0.41421356237311063
0
LWPOLYLINE
5
136
100
AcDbEntity
8
0
100
AcDbPolyline
90
8
70
1
43
0.0
10
-90.34375
20
69.700000000000003
42
0.41421356237310025
10
-89.84375
20
69.199999999999989
10
-72.081249999999997
20
69.200000000000003
42
0.41421356237309503
10
-71.581249999999997
20
69.700000000000003
10
-71.581249999999997
20
82.700000000000017
42
0.41421356237309503
10
-72.081249999999983
20
83.200000000000003
10
-89.84375
20
83.200000000000017
42
0.41421356237307422
10
-90.34375
20
82.700000000000017
0
LWPOLYLINE
5
137
100
AcDbEntity
8
0
100
AcDbPolyline
90
8
70
1
43
0.0
10
-135.08750000000001
20
83.200000000000017
42
0.4142135623730534
10
-135.58750000000001
20
82.700000000000017
10
-135.58750000000001
20
69.700000000000003
42
0.41421356237307944
10
-135.08750000000001
20
69.200000000000003
10
-122.08750000000002
20
69.200000000000003
42
0.41421356237310542
10
-121.58750000000001
20
69.700000000000003
10
-121.58750000000001
20
82.700000000000017
42
0.41421356237307422
10
-122.08750000000002
20
83.200000000000017
0
LWPOLYLINE
5
138
100
AcDbEntity
8
0
100
AcDbPolyline
90
8
70
1
43
0.0
10
-116.53750000000001
20
69.700000000000003
42
0.414213562373069
10
-116.03750000000002
20
69.199999999999989
10
-103.03750000000001
20
69.200000000000003
42
0.41421356237310542
10
-102.53749999999999
20
69.700000000000003
10
-102.53749999999999
20
82.700000000000017
42
0.41421356237307422
10
-103.03750000000001
20
83.200000000000017
10
-116.03749999999999
20
83.200000000000017
42
0.4142135623730534
10
-116.53750000000001
20
82.700000000000017
0
LWPOLYLINE
5
139
100
AcDbEntity
8
0
100
AcDbPolyline
90
8
70
1
43
0.0
10
-107.80000000000001
20
31.100000000000001
10
-120.8
20
31.099999999999998
42
-0.41421356237307161
10
-121.30000000000001
20
31.600000000000001
10
-121.29999999999998
20
44.600000000000001
42
-0.41421356237310025
10
-120.8
20
45.099999999999994
10
-107.80000000000001
20
45.100000000000009
42
-0.41421356237309503
10
-107.30000000000001
20
44.600000000000001
10
-107.30000000000001
20
31.600000000000001
42
-0.41421356237310542
0
LWPOLYLINE
5
140
100
AcDbEntity
8
0
100
AcDbPolyline
90
8
70
1
43
0.0
10
-101.75
20
45.099999999999994
42
0.41421356237308982
10
-102.25000000000001
20
44.600000000000001
10
-102.25000000000001
20
31.600000000000001
42
0.41421356237309243
10
-101.75
20
31.099999999999994
10
-88.75
20
31.100000000000001
42
0.41421356237310542
10
-88.25
20
31.600000000000001
10
-88.25
20
44.600000000000001
42
0.41421356237309503
10
-88.75
20
45.099999999999994
0
LWPOLYLINE
5
141
100
AcDbEntity
8
0
100
AcDbPolyline
90
8
70
1
43
0.0
10
-45.387500000000003
20
39.837499999999999
42
0.41421356237310802
10
-45.887499999999989
20
40.337499999999991
10
-58.88750000000001
20
40.337500000000006
42
0.41421356237310281
10
-59.387500000000003
20
39.837500000000006
10
-59.387500000000003
20
26.837499999999999
42
0.41421356237308982
10
-58.887500000000017
20
26.337499999999999
10
-45.887500000000003
20
26.337499999999999
42
0.41421356237309503
10
-45.387500000000003
20
26.837499999999999
0
LWPOLYLINE
5
142
100
AcDbEntity
8
0
100
AcDbPolyline
90
8
70
1
43
0.0
10
-154.63750000000002
20
69.700000000000003
10
-154.63750000000002
20
82.700000000000017
42
-0.41421356237307422
10
-154.13749999999999
20
83.200000000000017
10
-141.13749999999999
20
83.200000000000017
42
-0.41421356237307422
10
-140.63749999999999
20
82.700000000000017
10
-140.63749999999999
20
69.700000000000003
42
-0.41421356237310542
10
-141.13749999999999
20
69.200000000000003
10
-154.13749999999999
20
69.199999999999989
42
-0.41421356237310025
0
LWPOLYLINE
5
143
100
AcDbEntity
8
0
100
AcDbPolyline
90
8
70
1
43
0.0
10
-26.337499999999991
20
39.837500000000006
10
-26.337499999999999
20
26.837499999999999
42
-0.41421356237309503
10
-26.837499999999999
20
26.337499999999999
10
-39.837500000000006
20
26.337499999999995
42
-0.41421356237310281
10
-40.337500000000006
20
26.837499999999999
10
-40.337500000000006
20
39.837500000000006
42
-0.41421356237310802
10
-39.837499999999999
20
40.337500000000006
10
-26.837499999999999
20
40.337500000000006
42
-0.41421356237311063
0
LWPOLYLINE
5
144
100
AcDbEntity
8
0
100
AcDbPolyline
90
8
70
1
43
0.0
10
-140.34999999999999
20
31.600000000000001
42
0.41421356237309243
10
-139.84999999999999
20
31.099999999999998
10
-126.85000000000001
20
31.100000000000001
42
0.41421356237310025
10
-126.35000000000002
20
31.600000000000001
10
-126.34999999999999
20
44.600000000000001
42
0.41421356237307422
10
-126.85000000000001
20
45.099999999999994
10
-139.84999999999999
20
45.099999999999994
42
0.41421356237308982
10
-140.34999999999999
20
44.600000000000001
0
LWPOLYLINE
5
145
100
AcDbEntity
8
0
100
AcDbPolyline
90
8
70
1
43
0.0
10
-83.200000000000017
20
31.600000000000001
10
-83.200000000000003
20
44.600000000000001
42
-0.41421356237310025
10
-82.700000000000017
20
45.099999999999994
10
-69.700000000000003
20
45.099999999999994
42
-0.41421356237309503
10
-69.200000000000003
20
44.600000000000001
10
-69.200000000000017
20
31.600000000000001
42
-0.41421356237309764
10
-69.700000000000003
20
31.100000000000001
10
-82.700000000000017
20
31.099999999999998
42
-0.41421356237307161
0
LWPOLYLINE
5
146
100
AcDbEntity
8
0
100
AcDbPolyline
90
8
70
1
43
0.0
10
-145.40000000000001
20
44.600000000000001
10
-145.40000000000003
20
31.600000000000001
42
-0.41421356237310025
10
-145.90000000000001
20
31.100000000000001
10
-158.90000000000001
20
31.099999999999998
42
-0.41421356237309243
10
-159.40000000000001
20
31.600000000000001
10
-159.40000000000001
20
44.600000000000001
42
-0.41421356237308982
10
-158.90000000000001
20
45.099999999999994
10
-145.90000000000001
20
45.100000000000009
42
-0.41421356237307422
0
LWPOLYLINE
5
147
100
AcDbEntity
8
0
100
AcDbPolyline
90
8
70
1
43
0.0
10
-68.362500000000011
20
63.650000000000006
42
0.41421356237310542
10
-68.862500000000011
20
64.150000000000006
10
-69.862499999999997
20
64.150000000000006
42
0.41421356237310542
10
-70.362499999999983
20
63.650000000000006
10
-70.362499999999997
20
50.650000000000006
42
0.41421356237309503
10
-69.862499999999997
20
50.150000000000006
10
-68.862500000000011
20
50.150000000000006
42
0.41421356237309503
10
-68.362499999999997
20
50.650000000000006
0
LWPOLYLINE
5
148
100
AcDbEntity
8
0
100
AcDbPolyline
90
8
70
1
43
0.0
10
-40.337500000000006
20
50.650000000000006
42
0.41421356237310542
10
-39.837499999999999
20
50.150000000000006
10
-26.837499999999999
20
50.150000000000006
42
0.41421356237309503
10
-26.337499999999991
20
50.650000000000006
10
-26.337499999999999
20
63.650000000000006
42
0.41421356237309764
10
-26.837499999999999
20
64.150000000000006
10
-39.837499999999999
20
64.150000000000006
42
0.41421356237311585
10
-40.337500000000013
20
63.650000000000006
0
LWPOLYLINE
5
149
100
AcDbEntity
8
0
100
AcDbPolyline
90
8
70
1
43
0.0
10
-87.96250000000002
20
50.650000000000006
42
0.41421356237307422
10
-87.46250000000002
20
50.149999999999999
10
-74.462500000000006
20
50.150000000000006
42
0.41421356237309503
10
-73.96250000000002
20
50.650000000000006
10
-73.962500000000006
20
63.650000000000006
42
0.41421356237310542
10
-74.462500000000006
20
64.150000000000006
10
-87.46250000000002
20
64.150000000000006
42
0.41421356237310542
10
-87.96250000000002
20
63.650000000000006
0
LWPOLYLINE
5
150
100
AcDbEntity
8
0
100
AcDbPolyline
90
8
70
1
43
0.0
10
-45.887500000000003
20
50.150000000000006
42
0.41421356237309503
10
-45.387500000000003
20
50.650000000000006
10
-45.387500000000003
20
63.650000000000006
42
0.41421356237310025
10
-45.88750000000001
20
64.150000000000006
10
-58.88750000000001
20
64.150000000000006
42
0.41421356237309503
10
-59.387500000000003
20
63.650000000000006
10
-59.387500000000003
20
50.650000000000006
42
0.41421356237308982
10
-58.887500000000017
20
50.150000000000006
0
LWPOLYLINE
5
151
100
AcDbEntity
8
0
100
AcDbPolyline
90
8
70
1
43
0.0
10
-197.50000000000003
20
31.600000000000001
10
-197.5
20
44.600000000000001
42
-0.4142135623730222
10
-197.00000000000003
20
45.099999999999994
10
-184.00000000000003
20
45.099999999999994
42
-0.41421356237313145
10
-183.5
20
44.600000000000001
10
-183.49999999999997
20
31.600000000000001
42
-0.41421356237307683
10
-184.00000000000003
20
31.100000000000001
10
-197.00000000000003
20
31.099999999999987
42
-0.41421356237310025
0
LWPOLYLINE
5
152
100
AcDbEntity
8
0
100
AcDbPolyline
90
8
70
1
43
0.0
10
-164.95000000000002
20
31.100000000000001
10
-177.94999999999999
20
31.100000000000001
42
-0.41421356237313145
10
-178.44999999999999
20
31.600000000000001
10
-178.45000000000002
20
44.600000000000001
42
-0.41421356237307422
10
-177.94999999999999
20
45.099999999999994
10
-164.95000000000002
20
45.099999999999994
42
-0.41421356237313145
10
-164.44999999999999
20
44.600000000000001
10
-164.44999999999996
20
31.600000000000001
42
-0.41421356237307683
0
LWPOLYLINE
5
153
100
AcDbEntity
8
0
100
AcDbPolyline
90
8
70
1
43
0.0
10
-20.787499999999994
20
64.150000000000006
10
-7.787500000000005
20
64.150000000000006
42
-0.41421356237309892
10
-7.2874999999999996
20
63.650000000000006
10
-7.2875000000000023
20
50.650000000000006
42
-0.41421356237309503
10
-7.7875000000000005
20
50.150000000000006
10
-20.787499999999994
20
50.150000000000006
42
-0.41421356237310025
10
-21.287500000000001
20
50.650000000000006
10
-21.287500000000005
20
63.650000000000006
42
-0.41421356237310281
0
LWPOLYLINE
5
154
100
AcDbEntity
8
0
100
AcDbPolyline
90
8
70
1
43
0.0
10
-130.32499999999999
20
64.150000000000006
42
0.41421356237310542
10
-130.82499999999999
20
63.650000000000006
10
-130.82499999999999
20
50.650000000000006
42
0.41421356237309503
10
-130.32499999999999
20
50.150000000000006
10
-117.32500000000002
20
50.150000000000006
42
0.41421356237308982
10
-116.82500000000002
20
50.650000000000006
10
-116.82500000000002
20
63.650000000000006
42
0.41421356237310025
10
-117.32500000000002
20
64.150000000000006
0
LWPOLYLINE
5
155
100
AcDbEntity
8
0
100
AcDbPolyline
90
8
70
1
43
0.0
10
-111.77500000000002
20
50.650000000000006
42
0.41421356237309503
10
-111.27500000000001
20
50.149999999999999
10
-98.275000000000006
20
50.150000000000006
42
0.41421356237308982
10
-97.775000000000006
20
50.650000000000006
10
-97.775000000000006
20
63.650000000000006
42
0.41421356237310025
10
-98.275000000000006
20
64.150000000000006
10
-111.27500000000001
20
64.150000000000006
42
0.41421356237310542
10
-111.77500000000002
20
63.650000000000006
0
LWPOLYLINE
5
156
100
AcDbEntity
8
0
100
AcDbPolyline
90
8
70
1
43
0.0
10
-91.5625
20
63.650000000000006
10
-91.5625
20
50.650000000000006
42
-0.41421356237308982
10
-92.0625
20
50.150000000000006
10
-93.0625
20
50.149999999999999
42
-0.41421356237307422
10
-93.562500000000014
20
50.650000000000006
10
-93.5625
20
63.650000000000006
42
-0.41421356237310542
10
-93.0625
20
64.150000000000006
10
-92.0625
20
64.15000000000002
42
-0.41421356237310025
0
LWPOLYLINE
5
157
100
AcDbEntity
8
0
100
AcDbPolyline
90
8
70
1
43
0.0
10
-174.47500000000002
20
50.150000000000006
42
0.41421356237307422
10
-173.97499999999997
20
50.650000000000006
10
-173.97500000000002
20
63.650000000000006
42
0.41421356237313667
10
-174.47500000000002
20
64.150000000000006
10
-187.47499999999999
20
64.150000000000006
42
0.41421356237307422
10
-187.97499999999999
20
63.650000000000006
10
-187.97499999999999
20
50.650000000000006
42
0.41421356237313145
10
-187.47499999999999
20
50.150000000000006
0
LWPOLYLINE
5
158
100
AcDbEntity
8
0
100
AcDbPolyline
90
8
70
1
43
0.0
10
-155.42500000000001
20
50.150000000000006
10
-168.42500000000001
20
50.15000000000002
42
-0.41421356237312101
10
-168.92500000000001
20
50.650000000000006
10
-168.92499999999998
20
63.650000000000006
42
-0.4142135623730222
10
-168.42500000000001
20
64.150000000000006
10
-155.42500000000004
20
64.15000000000002
42
-0.41421356237307944
10
-154.92500000000001
20
63.650000000000006
10
-154.92500000000004
20
50.650000000000006
42
-0.41421356237310025
0
LWPOLYLINE
5
159
100
AcDbEntity
8
0
100
AcDbPolyline
90
8
70
1
43
0.0
10
-149.375
20
64.150000000000006
10
-136.37500000000003
20
64.15000000000002
42
-0.41421356237307944
10
-135.875
20
63.650000000000006
10
-135.87500000000003
20
50.650000000000006
42
-0.41421356237310025
10
-136.375
20
50.150000000000006
10
-149.375
20
50.149999999999999
42
-0.41421356237309503
10
-149.875
20
50.650000000000006
10
-149.875
20
63.650000000000006
42
-0.41421356237310542
0
LWPOLYLINE
5
160
100
AcDbEntity
8
0
100
AcDbPolyline
90
8
70
1
43
0.0
10
-26.337499999999991
20
82.700000000000017
10
-26.337499999999995
20
69.700000000000003
42
-0.41421356237309764
10
-26.837499999999999
20
69.200000000000003
10
-39.837500000000006
20
69.200000000000003
42
-0.41421356237308982
10
-40.337500000000006
20
69.700000000000003
10
-40.33750000000002
20
82.700000000000017
42
-0.41421356237306123
10
-39.837499999999999
20
83.200000000000017
10
-26.837499999999999
20
83.200000000000003
42
-0.41421356237310025
0
LWPOLYLINE
5
161
100
AcDbEntity
8
0
100
AcDbPolyline
90
8
70
1
43
0.0
10
-7.787500000000005
20
69.200000000000003
10
-20.787499999999994
20
69.200000000000017
42
-0.41421356237310281
10
-21.287500000000001
20
69.700000000000003
10
-21.287500000000005
20
82.700000000000017
42
-0.41421356237307161
10
-20.787500000000001
20
83.200000000000017
10
-7.787500000000005
20
83.200000000000017
42
-0.41421356237307683
10
-7.2874999999999996
20
82.700000000000017
10
-7.2874999999999979
20
69.700000000000003
42
-0.41421356237310025
0
LWPOLYLINE
5
162
100
AcDbEntity
8
0
100
AcDbPolyline
90
8
70
1
43
0.0
10
-140.90600000000001
20
14.472000000000003
42
0.41421356237309503
10
-139.90600000000003
20
13.472000000000005
10
-125.20600000000003
20
13.472000000000005
42
0.41421356237309503
10
-124.20600000000002
20
14.472000000000003
10
-124.20600000000005
20
25.072000000000003
42
0.41421356237309503
10
-125.20600000000003
20
26.071999999999996
10
-139.90600000000003
20
26.071999999999996
42
0.41421356237309503
10
-140.90600000000003
20
25.071999999999996
0
ENDSEC
0
SECTION
2
OBJECTS
0
DICTIONARY
5
C
100
AcDbDictionary
3
ACAD_GROUP
350
D
3
ACAD_MLINESTYLE
350
17
0
DICTIONARY
5
D
100
AcDbDictionary
0
DICTIONARY
5
1A
330
C
100
AcDbDictionary
0
DICTIONARY
5
17
100
AcDbDictionary
0
ENDSEC
0
EOF
