%FSLAX45Y45*%
G04 Gerber Fmt 4.5, Leading zero omitted, Abs format (unit mm)*
G04 Created by KiCad (PCBNEW (6.0.5)) date 2022-07-28 20:29:28*
%MOMM*%
%LPD*%
G01*
G04 APERTURE LIST*
%TA.AperFunction,Profile*%
%ADD10C,0.300000*%
%TD*%
%ADD11C,0.200000*%
G04 APERTURE END LIST*
D10*
X10985620Y-9115000D02*
G75*
G03*
X10935625Y-9065000I-50000J0D01*
G01*
X13793125Y-7160000D02*
X12493125Y-7160000D01*
X18634375Y-8510000D02*
X18634375Y-7210000D01*
X21541875Y-5254995D02*
G75*
G03*
X21491875Y-5305000I5J-50005D01*
G01*
X9635625Y-7159995D02*
G75*
G03*
X9585625Y-7210000I5J-50005D01*
G01*
X9080620Y-12925000D02*
G75*
G03*
X9030625Y-12875000I-50000J0D01*
G01*
X23446875Y-5255000D02*
X24746875Y-5255000D01*
X11966880Y-6605000D02*
G75*
G03*
X12016875Y-6655000I50000J0D01*
G01*
X13871880Y-6605000D02*
G75*
G03*
X13921875Y-6655000I50000J0D01*
G01*
X18555625Y-10465005D02*
G75*
G03*
X18605625Y-10415000I-5J50005D01*
G01*
X15300630Y-10415000D02*
G75*
G03*
X15350625Y-10465000I50000J0D01*
G01*
X5825625Y-9064995D02*
G75*
G03*
X5775625Y-9115000I5J-50005D01*
G01*
X7175625Y-7210000D02*
X7175625Y-8510000D01*
X7125625Y-14275000D02*
X5825625Y-14275000D01*
X9585625Y-7210000D02*
X9585625Y-8510000D01*
X12493125Y-12874995D02*
G75*
G03*
X12443125Y-12925000I5J-50005D01*
G01*
X21463120Y-11020000D02*
G75*
G03*
X21413125Y-10970000I-50000J0D01*
G01*
X17467470Y-4652200D02*
G75*
G03*
X17567475Y-4752200I100000J0D01*
G01*
X22726825Y-14275000D02*
X22126825Y-14275000D01*
X14403125Y-14225000D02*
X14403125Y-12925000D01*
X19508125Y-12370005D02*
G75*
G03*
X19558125Y-12320000I-5J50005D01*
G01*
X12083120Y-12925000D02*
G75*
G03*
X12033125Y-12875000I-50000J0D01*
G01*
X10935625Y-14275005D02*
G75*
G03*
X10985625Y-14225000I-5J50005D01*
G01*
X14353125Y-8560005D02*
G75*
G03*
X14403125Y-8510000I-5J50005D01*
G01*
X22076830Y-14225000D02*
G75*
G03*
X22126825Y-14275000I50000J0D01*
G01*
X14507500Y-12370000D02*
X13207500Y-12370000D01*
X11883130Y-8510000D02*
G75*
G03*
X11933125Y-8560000I50000J0D01*
G01*
X17176870Y-5305000D02*
G75*
G03*
X17126875Y-5255000I-50000J0D01*
G01*
X13843120Y-12925000D02*
G75*
G03*
X13793125Y-12875000I-50000J0D01*
G01*
X15401300Y-11020000D02*
G75*
G03*
X15351300Y-10970000I-50010J-10D01*
G01*
X9080625Y-9115000D02*
X9080625Y-10415000D01*
X14081250Y-9115000D02*
G75*
G03*
X14031250Y-9065000I-50010J-10D01*
G01*
X14203125Y-8510000D02*
X14203125Y-7210000D01*
X7730625Y-4778745D02*
G75*
G03*
X7680625Y-4828750I5J-50005D01*
G01*
X21015625Y-10415000D02*
X21015625Y-9115000D01*
X15221875Y-5255000D02*
X13921875Y-5255000D01*
X13843125Y-8510000D02*
X13843125Y-7210000D01*
X9030625Y-12370000D02*
X7730625Y-12370000D01*
X7175625Y-4473750D02*
X7175625Y-6178750D01*
X19160625Y-9064995D02*
G75*
G03*
X19110625Y-9115000I5J-50005D01*
G01*
X21939370Y-7210000D02*
G75*
G03*
X21889375Y-7160000I-50000J0D01*
G01*
X15776880Y-6605000D02*
G75*
G03*
X15826875Y-6655000I50000J0D01*
G01*
X9635625Y-10969995D02*
G75*
G03*
X9585625Y-11020000I5J-50005D01*
G01*
X10935625Y-6178755D02*
G75*
G03*
X10985625Y-6128750I-5J50005D01*
G01*
X15112500Y-12875000D02*
X16412500Y-12875000D01*
X24320620Y-12925000D02*
G75*
G03*
X24270625Y-12875000I-50000J0D01*
G01*
X18684375Y-7160000D02*
X19984375Y-7160000D01*
X21491880Y-6605000D02*
G75*
G03*
X21541875Y-6655000I50000J0D01*
G01*
X13013700Y-12420000D02*
X13013700Y-11020000D01*
X12016875Y-5254995D02*
G75*
G03*
X11966875Y-5305000I5J-50005D01*
G01*
X12033125Y-12875000D02*
X11933125Y-12875000D01*
X16762475Y-4750000D02*
X11724606Y-4750000D01*
X9030625Y-6178750D02*
X7730625Y-6178750D01*
X25114425Y-14275000D02*
X24514425Y-14275000D01*
X20034370Y-7210000D02*
G75*
G03*
X19984375Y-7160000I-50000J0D01*
G01*
X23446875Y-5254995D02*
G75*
G03*
X23396875Y-5305000I5J-50005D01*
G01*
X12443125Y-7210000D02*
X12443125Y-8510000D01*
X11966875Y-6605000D02*
X11966875Y-5305000D01*
X23297475Y-3105000D02*
G75*
G03*
X23297475Y-3105000I-145000J0D01*
G01*
X13316875Y-6655000D02*
X12016875Y-6655000D01*
X4515620Y-15235000D02*
G75*
G03*
X4715625Y-15435000I200000J0D01*
G01*
X7730625Y-12874995D02*
G75*
G03*
X7680625Y-12925000I5J-50005D01*
G01*
X23452475Y-4550000D02*
X23452475Y-3005000D01*
X17567475Y-4752200D02*
X19037475Y-4752200D01*
X7175620Y-7210000D02*
G75*
G03*
X7125625Y-7160000I-50000J0D01*
G01*
X15351300Y-12470000D02*
X14751300Y-12470000D01*
X16729375Y-7210000D02*
X16729375Y-8510000D01*
X19636875Y-5254995D02*
G75*
G03*
X19586875Y-5305000I5J-50005D01*
G01*
X18079375Y-7160000D02*
X16779375Y-7160000D01*
X15401300Y-11020000D02*
X15401300Y-12420000D01*
X13207500Y-10970000D02*
G75*
G03*
X13157500Y-11020000I0J-50000D01*
G01*
X16224375Y-8510000D02*
X16224375Y-7210000D01*
X21541875Y-5255000D02*
X22841875Y-5255000D01*
X17493750Y-12875000D02*
X18793750Y-12875000D01*
X9635625Y-12370000D02*
X10935625Y-12370000D01*
X22444380Y-8510000D02*
G75*
G03*
X22494375Y-8560000I50000J0D01*
G01*
X7125625Y-12370000D02*
X5825625Y-12370000D01*
X9030625Y-14275005D02*
G75*
G03*
X9080625Y-14225000I-5J50005D01*
G01*
X14403120Y-12925000D02*
G75*
G03*
X14353125Y-12875000I-50000J0D01*
G01*
X24796870Y-5305000D02*
G75*
G03*
X24746875Y-5255000I-50000J0D01*
G01*
X22415620Y-9115000D02*
G75*
G03*
X22365625Y-9065000I-50000J0D01*
G01*
X22970625Y-9064995D02*
G75*
G03*
X22920625Y-9115000I5J-50005D01*
G01*
X18158130Y-12320000D02*
G75*
G03*
X18208125Y-12370000I50000J0D01*
G01*
X4960625Y-15135000D02*
G75*
G03*
X4960625Y-15135000I-145000J0D01*
G01*
X20589375Y-7160000D02*
X21889375Y-7160000D01*
X22365625Y-10465000D02*
X21065625Y-10465000D01*
X11883130Y-14225000D02*
G75*
G03*
X11933125Y-14275000I50000J0D01*
G01*
X5825625Y-12874995D02*
G75*
G03*
X5775625Y-12925000I5J-50005D01*
G01*
X12443130Y-8510000D02*
G75*
G03*
X12493125Y-8560000I50000J0D01*
G01*
X10935625Y-7160000D02*
X9635625Y-7160000D01*
X9030625Y-10465000D02*
X7730625Y-10465000D01*
X20063130Y-12320000D02*
G75*
G03*
X20113125Y-12370000I50000J0D01*
G01*
X10985620Y-12925000D02*
G75*
G03*
X10935625Y-12875000I-50000J0D01*
G01*
X7375625Y-4273755D02*
G75*
G03*
X7175625Y-4473750I-5J-199995D01*
G01*
X20539375Y-8510000D02*
X20539375Y-7210000D01*
X21968130Y-12320000D02*
G75*
G03*
X22018125Y-12370000I50000J0D01*
G01*
X5775625Y-8510000D02*
X5775625Y-7210000D01*
X7730625Y-4778750D02*
X9030625Y-4778750D01*
X16729380Y-8510000D02*
G75*
G03*
X16779375Y-8560000I50000J0D01*
G01*
X7175625Y-11020000D02*
X7175625Y-12320000D01*
X21889375Y-8560005D02*
G75*
G03*
X21939375Y-8510000I-5J50005D01*
G01*
X19875000Y-12875000D02*
G75*
G03*
X19825000Y-12925000I0J-50000D01*
G01*
X11933125Y-14275000D02*
X12033125Y-14275000D01*
X17681875Y-5305000D02*
X17681875Y-6605000D01*
X15062500Y-14225000D02*
G75*
G03*
X15112500Y-14275000I50010J10D01*
G01*
X9080625Y-8510000D02*
X9080625Y-7210000D01*
X19875000Y-14275000D02*
X21175000Y-14275000D01*
X24464430Y-14225000D02*
G75*
G03*
X24514425Y-14275000I50000J0D01*
G01*
X23873130Y-12320000D02*
G75*
G03*
X23923125Y-12370000I50000J0D01*
G01*
X9585625Y-12925000D02*
X9585625Y-14225000D01*
X10985625Y-9115000D02*
X10985625Y-10415000D01*
X7680625Y-14225000D02*
X7680625Y-12925000D01*
X10985625Y-6128750D02*
X10985625Y-4828750D01*
X23368120Y-11020000D02*
G75*
G03*
X23318125Y-10970000I-50000J0D01*
G01*
X19558125Y-11020000D02*
X19558125Y-12320000D01*
X20539380Y-8510000D02*
G75*
G03*
X20589375Y-8560000I50000J0D01*
G01*
X25360625Y-15135000D02*
G75*
G03*
X25360625Y-15135000I-145000J0D01*
G01*
X14751300Y-10970000D02*
X15351300Y-10970000D01*
X15350625Y-10465000D02*
X16650625Y-10465000D01*
X22776820Y-12825000D02*
G75*
G03*
X22726825Y-12775000I-50000J0D01*
G01*
X16650625Y-10465005D02*
G75*
G03*
X16700625Y-10415000I-5J50005D01*
G01*
X5775630Y-14225000D02*
G75*
G03*
X5825625Y-14275000I50000J0D01*
G01*
X4960625Y-6678750D02*
G75*
G03*
X4960625Y-6678750I-145000J0D01*
G01*
X23923125Y-10970000D02*
X25223125Y-10970000D01*
X12205000Y-10415000D02*
G75*
G03*
X12255000Y-10465000I50010J10D01*
G01*
X13157500Y-12320000D02*
G75*
G03*
X13207500Y-12370000I50010J10D01*
G01*
X16174375Y-8560005D02*
G75*
G03*
X16224375Y-8510000I-5J50005D01*
G01*
X17731875Y-5254995D02*
G75*
G03*
X17681875Y-5305000I5J-50005D01*
G01*
X19636875Y-5255000D02*
X20936875Y-5255000D01*
X21491875Y-6605000D02*
X21491875Y-5305000D01*
X13207500Y-10970000D02*
X14507500Y-10970000D01*
X14874375Y-8560000D02*
X16174375Y-8560000D01*
X16779375Y-7159995D02*
G75*
G03*
X16729375Y-7210000I5J-50005D01*
G01*
X19472475Y-3492205D02*
G75*
G03*
X19372475Y-3592200I-5J-99995D01*
G01*
X14701300Y-12420000D02*
X14701300Y-11020000D01*
X19081875Y-6605000D02*
X19081875Y-5305000D01*
X22365625Y-10465005D02*
G75*
G03*
X22415625Y-10415000I-5J50005D01*
G01*
X25515625Y-15235000D02*
X25515625Y-10927500D01*
X14353125Y-8560000D02*
X14253125Y-8560000D01*
X15826875Y-5254995D02*
G75*
G03*
X15776875Y-5305000I5J-50005D01*
G01*
X24320625Y-10415000D02*
X24320625Y-9115000D01*
X9080625Y-12925000D02*
X9080625Y-14225000D01*
X19586875Y-6605000D02*
X19586875Y-5305000D01*
X6975625Y-6378750D02*
X4715625Y-6378750D01*
X18129375Y-8510000D02*
X18129375Y-7210000D01*
X20942475Y-3492200D02*
X19472475Y-3492200D01*
X6975625Y-6378745D02*
G75*
G03*
X7175625Y-6178750I5J199995D01*
G01*
X14081250Y-10415000D02*
X14081250Y-9115000D01*
X16253125Y-11020000D02*
X16253125Y-12320000D01*
X12313700Y-12420000D02*
G75*
G03*
X12363700Y-12470000I50010J10D01*
G01*
X21015630Y-10415000D02*
G75*
G03*
X21065625Y-10465000I50000J0D01*
G01*
X14031250Y-10465000D02*
G75*
G03*
X14081250Y-10415000I0J50000D01*
G01*
X21277470Y-4652200D02*
G75*
G03*
X21377475Y-4752200I100000J0D01*
G01*
X18843750Y-12925000D02*
G75*
G03*
X18793750Y-12875000I-50010J-10D01*
G01*
X24270625Y-14275005D02*
G75*
G03*
X24320625Y-14225000I-5J50005D01*
G01*
X19472475Y-4752200D02*
X20942475Y-4752200D01*
X24514425Y-12774995D02*
G75*
G03*
X24464425Y-12825000I5J-50005D01*
G01*
X15351300Y-12470000D02*
G75*
G03*
X15401300Y-12420000I0J50000D01*
G01*
X9585630Y-12320000D02*
G75*
G03*
X9635625Y-12370000I50000J0D01*
G01*
X9080620Y-9115000D02*
G75*
G03*
X9030625Y-9065000I-50000J0D01*
G01*
X22776825Y-12825000D02*
X22776825Y-14225000D01*
X16174375Y-7160000D02*
X14874375Y-7160000D01*
X10985625Y-14225000D02*
X10985625Y-12925000D01*
X23794375Y-7160000D02*
X22494375Y-7160000D01*
X9635625Y-12874995D02*
G75*
G03*
X9585625Y-12925000I5J-50005D01*
G01*
X7175625Y-9115000D02*
X7175625Y-10415000D01*
X12083125Y-8510000D02*
X12083125Y-7210000D01*
X19984375Y-8560005D02*
G75*
G03*
X20034375Y-8510000I-5J50005D01*
G01*
X19081870Y-5305000D02*
G75*
G03*
X19031875Y-5255000I-50000J0D01*
G01*
X5775630Y-10415000D02*
G75*
G03*
X5825625Y-10465000I50000J0D01*
G01*
X13366875Y-5305000D02*
X13366875Y-6605000D01*
X4715625Y-6378755D02*
G75*
G03*
X4515625Y-6578750I-5J-199995D01*
G01*
X9030625Y-12370005D02*
G75*
G03*
X9080625Y-12320000I-5J50005D01*
G01*
X7730625Y-9065000D02*
X9030625Y-9065000D01*
X7730625Y-10970000D02*
X9030625Y-10970000D01*
X13366870Y-5305000D02*
G75*
G03*
X13316875Y-5255000I-50000J0D01*
G01*
X24563120Y-10527500D02*
G75*
G03*
X24763125Y-10727500I200000J0D01*
G01*
X12033125Y-7160000D02*
X11933125Y-7160000D01*
X23794375Y-8560005D02*
G75*
G03*
X23844375Y-8510000I-5J50005D01*
G01*
X22076825Y-14225000D02*
X22076825Y-12825000D01*
X19372475Y-3592200D02*
X19372475Y-4652200D01*
X12493125Y-7159995D02*
G75*
G03*
X12443125Y-7210000I5J-50005D01*
G01*
X16253130Y-12320000D02*
G75*
G03*
X16303125Y-12370000I50000J0D01*
G01*
X25273120Y-11020000D02*
G75*
G03*
X25223125Y-10970000I-50000J0D01*
G01*
X18843750Y-12925000D02*
X18843750Y-14225000D01*
X22847475Y-4752195D02*
G75*
G03*
X22947475Y-4652200I5J99995D01*
G01*
X7125625Y-8560005D02*
G75*
G03*
X7175625Y-8510000I-5J50005D01*
G01*
X23396880Y-6605000D02*
G75*
G03*
X23446875Y-6655000I50000J0D01*
G01*
X21377475Y-3492205D02*
G75*
G03*
X21277475Y-3592200I-5J-99995D01*
G01*
X19037475Y-4752195D02*
G75*
G03*
X19137475Y-4652200I5J99995D01*
G01*
X19508125Y-12370000D02*
X18208125Y-12370000D01*
X23873125Y-12320000D02*
X23873125Y-11020000D01*
X16650625Y-9065000D02*
X15350625Y-9065000D01*
X13921875Y-6655000D02*
X15221875Y-6655000D01*
X16700625Y-10415000D02*
X16700625Y-9115000D01*
X17205625Y-9115000D02*
X17205625Y-10415000D01*
X5825625Y-9065000D02*
X7125625Y-9065000D01*
X19586880Y-6605000D02*
G75*
G03*
X19636875Y-6655000I50000J0D01*
G01*
X24796875Y-5305000D02*
X24796875Y-6605000D01*
X19031875Y-6655005D02*
G75*
G03*
X19081875Y-6605000I-5J50005D01*
G01*
X18605625Y-10415000D02*
X18605625Y-9115000D01*
X18555625Y-9065000D02*
X17255625Y-9065000D01*
X20589375Y-7159995D02*
G75*
G03*
X20539375Y-7210000I5J-50005D01*
G01*
X24746875Y-6655000D02*
X23446875Y-6655000D01*
X18079375Y-8560005D02*
G75*
G03*
X18129375Y-8510000I-5J50005D01*
G01*
X14253125Y-7159995D02*
G75*
G03*
X14203125Y-7210000I5J-50005D01*
G01*
X22920625Y-12925000D02*
X22920625Y-14225000D01*
X7680630Y-10415000D02*
G75*
G03*
X7730625Y-10465000I50000J0D01*
G01*
X12255000Y-10465000D02*
X14031250Y-10465000D01*
X16962475Y-3005000D02*
X16962475Y-4550000D01*
X11583184Y-4691422D02*
G75*
G03*
X11724606Y-4750000I141416J141412D01*
G01*
X9635625Y-6178750D02*
X10935625Y-6178750D01*
X17176875Y-5305000D02*
X17176875Y-6605000D01*
X24270625Y-12875000D02*
X22970625Y-12875000D01*
X5825625Y-10969995D02*
G75*
G03*
X5775625Y-11020000I5J-50005D01*
G01*
X19372470Y-4652200D02*
G75*
G03*
X19472475Y-4752200I100000J0D01*
G01*
X22444375Y-7210000D02*
X22444375Y-8510000D01*
X19825000Y-14225000D02*
G75*
G03*
X19875000Y-14275000I50010J10D01*
G01*
X9080625Y-11020000D02*
X9080625Y-12320000D01*
X14031250Y-9065000D02*
X12255000Y-9065000D01*
X13871875Y-5305000D02*
X13871875Y-6605000D01*
X20113125Y-10969995D02*
G75*
G03*
X20063125Y-11020000I5J-50005D01*
G01*
X20510625Y-9115000D02*
X20510625Y-10415000D01*
X25039380Y-4950000D02*
G75*
G03*
X24839375Y-4750000I-200000J0D01*
G01*
X10935625Y-8560005D02*
G75*
G03*
X10985625Y-8510000I-5J50005D01*
G01*
X22947480Y-3592200D02*
G75*
G03*
X22847475Y-3492200I-100000J0D01*
G01*
X5825625Y-10970000D02*
X7125625Y-10970000D01*
X25223125Y-12370000D02*
X23923125Y-12370000D01*
X12963700Y-12470000D02*
G75*
G03*
X13013700Y-12420000I0J50000D01*
G01*
X14824380Y-8510000D02*
G75*
G03*
X14874375Y-8560000I50000J0D01*
G01*
X17567475Y-3492205D02*
G75*
G03*
X17467475Y-3592200I-5J-99995D01*
G01*
X13793125Y-8560005D02*
G75*
G03*
X13843125Y-8510000I-5J50005D01*
G01*
X5775630Y-8510000D02*
G75*
G03*
X5825625Y-8560000I50000J0D01*
G01*
X24270625Y-10465005D02*
G75*
G03*
X24320625Y-10415000I-5J50005D01*
G01*
X14403125Y-7210000D02*
X14403125Y-8510000D01*
X15271870Y-5305000D02*
G75*
G03*
X15221875Y-5255000I-50000J0D01*
G01*
X12443125Y-14225000D02*
X12443125Y-12925000D01*
X24086870Y-8622500D02*
G75*
G03*
X24286875Y-8822500I200000J0D01*
G01*
X14253125Y-7160000D02*
X14353125Y-7160000D01*
X21463125Y-12320000D02*
X21463125Y-11020000D01*
X9030625Y-14275000D02*
X7730625Y-14275000D01*
X24286875Y-6897500D02*
X24839375Y-6897500D01*
X19037475Y-3492200D02*
X17567475Y-3492200D01*
X16762475Y-4749995D02*
G75*
G03*
X16962475Y-4550000I5J199995D01*
G01*
X22018125Y-10969995D02*
G75*
G03*
X21968125Y-11020000I5J-50005D01*
G01*
X9585630Y-8510000D02*
G75*
G03*
X9635625Y-8560000I50000J0D01*
G01*
X5825625Y-7160000D02*
X7125625Y-7160000D01*
X22494375Y-7159995D02*
G75*
G03*
X22444375Y-7210000I5J-50005D01*
G01*
X12033125Y-14275005D02*
G75*
G03*
X12083125Y-14225000I-5J50005D01*
G01*
X16462500Y-12925000D02*
G75*
G03*
X16412500Y-12875000I-50010J-10D01*
G01*
X10935625Y-4778750D02*
X9635625Y-4778750D01*
X11933125Y-8560000D02*
X12033125Y-8560000D01*
X14203125Y-12925000D02*
X14203125Y-14225000D01*
X15350625Y-9064995D02*
G75*
G03*
X15300625Y-9115000I5J-50005D01*
G01*
X19110630Y-10415000D02*
G75*
G03*
X19160625Y-10465000I50000J0D01*
G01*
X25273125Y-11020000D02*
X25273125Y-12320000D01*
X21065625Y-9065000D02*
X22365625Y-9065000D01*
X12493125Y-8560000D02*
X13793125Y-8560000D01*
X20460625Y-10465005D02*
G75*
G03*
X20510625Y-10415000I-5J50005D01*
G01*
X7125625Y-12370005D02*
G75*
G03*
X7175625Y-12320000I-5J50005D01*
G01*
X19160625Y-9065000D02*
X20460625Y-9065000D01*
X23452470Y-4550000D02*
G75*
G03*
X23652475Y-4750000I200000J0D01*
G01*
X22920630Y-10415000D02*
G75*
G03*
X22970625Y-10465000I50000J0D01*
G01*
X18605620Y-9115000D02*
G75*
G03*
X18555625Y-9065000I-50000J0D01*
G01*
X19110625Y-10415000D02*
X19110625Y-9115000D01*
X25039375Y-6697500D02*
X25039375Y-4950000D01*
X9080620Y-7210000D02*
G75*
G03*
X9030625Y-7160000I-50000J0D01*
G01*
X11883125Y-12925000D02*
X11883125Y-14225000D01*
X5775630Y-12320000D02*
G75*
G03*
X5825625Y-12370000I50000J0D01*
G01*
X18208125Y-10969995D02*
G75*
G03*
X18158125Y-11020000I5J-50005D01*
G01*
X21277475Y-3592200D02*
X21277475Y-4652200D01*
X9080620Y-11020000D02*
G75*
G03*
X9030625Y-10970000I-50000J0D01*
G01*
X18208125Y-10970000D02*
X19508125Y-10970000D01*
X4715625Y-15435000D02*
X25315625Y-15435000D01*
X5775625Y-10415000D02*
X5775625Y-9115000D01*
X24839375Y-4750000D02*
X23652475Y-4750000D01*
X7125625Y-14275005D02*
G75*
G03*
X7175625Y-14225000I-5J50005D01*
G01*
X18684375Y-7159995D02*
G75*
G03*
X18634375Y-7210000I5J-50005D01*
G01*
X10985620Y-7210000D02*
G75*
G03*
X10935625Y-7160000I-50000J0D01*
G01*
X11224093Y-4332328D02*
G75*
G03*
X11082671Y-4273750I-141413J-141402D01*
G01*
X23368125Y-11020000D02*
X23368125Y-12320000D01*
X12033125Y-8560005D02*
G75*
G03*
X12083125Y-8510000I-5J50005D01*
G01*
X13921875Y-5254995D02*
G75*
G03*
X13871875Y-5305000I5J-50005D01*
G01*
X11082671Y-4273750D02*
X7375625Y-4273750D01*
X15826875Y-5255000D02*
X17126875Y-5255000D01*
X17255625Y-9064995D02*
G75*
G03*
X17205625Y-9115000I5J-50005D01*
G01*
X13843120Y-7210000D02*
G75*
G03*
X13793125Y-7160000I-50000J0D01*
G01*
X9030625Y-6178755D02*
G75*
G03*
X9080625Y-6128750I-5J50005D01*
G01*
X12493125Y-12875000D02*
X13793125Y-12875000D01*
X7730625Y-8560000D02*
X9030625Y-8560000D01*
X14353125Y-12875000D02*
X14253125Y-12875000D01*
X21175000Y-12875000D02*
X19875000Y-12875000D01*
X22126825Y-12775000D02*
X22726825Y-12775000D01*
X21175000Y-14275000D02*
G75*
G03*
X21225000Y-14225000I0J50000D01*
G01*
X12016875Y-5255000D02*
X13316875Y-5255000D01*
X9635625Y-8560000D02*
X10935625Y-8560000D01*
X9585630Y-6128750D02*
G75*
G03*
X9635625Y-6178750I50000J0D01*
G01*
X15221875Y-6655005D02*
G75*
G03*
X15271875Y-6605000I-5J50005D01*
G01*
X14824375Y-7210000D02*
X14824375Y-8510000D01*
X7730625Y-10969995D02*
G75*
G03*
X7680625Y-11020000I5J-50005D01*
G01*
X23396875Y-6605000D02*
X23396875Y-5305000D01*
X24839375Y-6897495D02*
G75*
G03*
X25039375Y-6697500I5J199995D01*
G01*
X25515630Y-10927500D02*
G75*
G03*
X25315625Y-10727500I-200000J0D01*
G01*
X24270625Y-9065000D02*
X22970625Y-9065000D01*
X10985620Y-11020000D02*
G75*
G03*
X10935625Y-10970000I-50000J0D01*
G01*
X7680625Y-6128750D02*
X7680625Y-4828750D01*
X9585625Y-11020000D02*
X9585625Y-12320000D01*
X10935625Y-12370005D02*
G75*
G03*
X10985625Y-12320000I-5J50005D01*
G01*
X17443750Y-14225000D02*
X17443750Y-12925000D01*
X22891870Y-5305000D02*
G75*
G03*
X22841875Y-5255000I-50000J0D01*
G01*
X24464425Y-14225000D02*
X24464425Y-12825000D01*
X25223125Y-12370005D02*
G75*
G03*
X25273125Y-12320000I-5J50005D01*
G01*
X22018125Y-10970000D02*
X23318125Y-10970000D01*
X9030625Y-8560005D02*
G75*
G03*
X9080625Y-8510000I-5J50005D01*
G01*
X23318125Y-12370005D02*
G75*
G03*
X23368125Y-12320000I-5J50005D01*
G01*
X7680630Y-12320000D02*
G75*
G03*
X7730625Y-12370000I50000J0D01*
G01*
X22415625Y-9115000D02*
X22415625Y-10415000D01*
X7680625Y-12320000D02*
X7680625Y-11020000D01*
X16700620Y-9115000D02*
G75*
G03*
X16650625Y-9065000I-50000J0D01*
G01*
X12205000Y-9115000D02*
X12205000Y-10415000D01*
X22970625Y-12874995D02*
G75*
G03*
X22920625Y-12925000I5J-50005D01*
G01*
X21065625Y-9064995D02*
G75*
G03*
X21015625Y-9115000I5J-50005D01*
G01*
X14253125Y-12874995D02*
G75*
G03*
X14203125Y-12925000I5J-50005D01*
G01*
X11621250Y-15135000D02*
G75*
G03*
X11621250Y-15135000I-145000J0D01*
G01*
X16303125Y-12370000D02*
X17603125Y-12370000D01*
X16224370Y-7210000D02*
G75*
G03*
X16174375Y-7160000I-50000J0D01*
G01*
X17255625Y-10465000D02*
X18555625Y-10465000D01*
X20063125Y-11020000D02*
X20063125Y-12320000D01*
X17603125Y-10970000D02*
X16303125Y-10970000D01*
X17126875Y-6655000D02*
X15826875Y-6655000D01*
X17407475Y-3105000D02*
G75*
G03*
X17407475Y-3105000I-145000J0D01*
G01*
X21225000Y-14225000D02*
X21225000Y-12925000D01*
X7175620Y-11020000D02*
G75*
G03*
X7125625Y-10970000I-50000J0D01*
G01*
X20034375Y-7210000D02*
X20034375Y-8510000D01*
X20510620Y-9115000D02*
G75*
G03*
X20460625Y-9065000I-50000J0D01*
G01*
X16412500Y-14275000D02*
G75*
G03*
X16462500Y-14225000I0J50000D01*
G01*
X19137480Y-3592200D02*
G75*
G03*
X19037475Y-3492200I-100000J0D01*
G01*
X9635625Y-4778745D02*
G75*
G03*
X9585625Y-4828750I5J-50005D01*
G01*
X23452480Y-3005000D02*
G75*
G03*
X23252475Y-2805000I-200000J0D01*
G01*
X7680625Y-10415000D02*
X7680625Y-9115000D01*
X9585625Y-4828750D02*
X9585625Y-6128750D01*
X20986870Y-5305000D02*
G75*
G03*
X20936875Y-5255000I-50000J0D01*
G01*
X22847475Y-3492200D02*
X21377475Y-3492200D01*
X13793125Y-14275000D02*
X12493125Y-14275000D01*
X14353125Y-14275005D02*
G75*
G03*
X14403125Y-14225000I-5J50005D01*
G01*
X7175620Y-12925000D02*
G75*
G03*
X7125625Y-12875000I-50000J0D01*
G01*
X19558120Y-11020000D02*
G75*
G03*
X19508125Y-10970000I-50000J0D01*
G01*
X24320625Y-14225000D02*
X24320625Y-12925000D01*
X21968125Y-12320000D02*
X21968125Y-11020000D01*
X25114425Y-14275005D02*
G75*
G03*
X25164425Y-14225000I-5J50005D01*
G01*
X16412500Y-14275000D02*
X15112500Y-14275000D01*
X10985625Y-12320000D02*
X10985625Y-11020000D01*
X11933125Y-7159995D02*
G75*
G03*
X11883125Y-7210000I5J-50005D01*
G01*
X5825625Y-12875000D02*
X7125625Y-12875000D01*
X13316875Y-6655005D02*
G75*
G03*
X13366875Y-6605000I-5J50005D01*
G01*
X22726825Y-14275005D02*
G75*
G03*
X22776825Y-14225000I-5J50005D01*
G01*
X7680630Y-8510000D02*
G75*
G03*
X7730625Y-8560000I50000J0D01*
G01*
X24286875Y-6897505D02*
G75*
G03*
X24086875Y-7097500I-5J-199995D01*
G01*
X11883125Y-7210000D02*
X11883125Y-8510000D01*
X7125625Y-10465005D02*
G75*
G03*
X7175625Y-10415000I-5J50005D01*
G01*
X12443130Y-14225000D02*
G75*
G03*
X12493125Y-14275000I50000J0D01*
G01*
X9635625Y-14275000D02*
X10935625Y-14275000D01*
X10935625Y-10465005D02*
G75*
G03*
X10985625Y-10415000I-5J50005D01*
G01*
X14701300Y-12420000D02*
G75*
G03*
X14751300Y-12470000I50010J10D01*
G01*
X13843125Y-12925000D02*
X13843125Y-14225000D01*
X25164420Y-12825000D02*
G75*
G03*
X25114425Y-12775000I-50000J0D01*
G01*
X9030625Y-7160000D02*
X7730625Y-7160000D01*
X24746875Y-6655005D02*
G75*
G03*
X24796875Y-6605000I-5J50005D01*
G01*
X24363125Y-8822500D02*
X24286875Y-8822500D01*
X22891875Y-5305000D02*
X22891875Y-6605000D01*
X21889375Y-8560000D02*
X20589375Y-8560000D01*
X19137475Y-4652200D02*
X19137475Y-3592200D01*
X13157500Y-12320000D02*
X13157500Y-11020000D01*
X22920625Y-9115000D02*
X22920625Y-10415000D01*
X17731875Y-6655000D02*
X19031875Y-6655000D01*
X7125625Y-8560000D02*
X5825625Y-8560000D01*
X24320620Y-9115000D02*
G75*
G03*
X24270625Y-9065000I-50000J0D01*
G01*
X11583185Y-4691421D02*
X11224092Y-4332329D01*
X20986875Y-5305000D02*
X20986875Y-6605000D01*
X17653120Y-11020000D02*
G75*
G03*
X17603125Y-10970000I-50000J0D01*
G01*
X20942475Y-4752195D02*
G75*
G03*
X21042475Y-4652200I5J99995D01*
G01*
X9585630Y-10415000D02*
G75*
G03*
X9635625Y-10465000I50000J0D01*
G01*
X16462500Y-12925000D02*
X16462500Y-14225000D01*
X16303125Y-10969995D02*
G75*
G03*
X16253125Y-11020000I5J-50005D01*
G01*
X17603125Y-12370005D02*
G75*
G03*
X17653125Y-12320000I-5J50005D01*
G01*
X5775625Y-14225000D02*
X5775625Y-12925000D01*
X23252475Y-2805000D02*
X17162475Y-2805000D01*
X4515625Y-6578750D02*
X4515625Y-15235000D01*
X24086875Y-8622500D02*
X24086875Y-7097500D01*
X17126875Y-6655005D02*
G75*
G03*
X17176875Y-6605000I-5J50005D01*
G01*
X18634380Y-8510000D02*
G75*
G03*
X18684375Y-8560000I50000J0D01*
G01*
X15160625Y-15135000D02*
G75*
G03*
X15160625Y-15135000I-145000J0D01*
G01*
X22126825Y-12774995D02*
G75*
G03*
X22076825Y-12825000I5J-50005D01*
G01*
X9635625Y-9065000D02*
X10935625Y-9065000D01*
X23844375Y-8510000D02*
X23844375Y-7210000D01*
X15271875Y-6605000D02*
X15271875Y-5305000D01*
X20460625Y-10465000D02*
X19160625Y-10465000D01*
X13793125Y-14275005D02*
G75*
G03*
X13843125Y-14225000I-5J50005D01*
G01*
X10985625Y-8510000D02*
X10985625Y-7210000D01*
X23844370Y-7210000D02*
G75*
G03*
X23794375Y-7160000I-50000J0D01*
G01*
X11933125Y-12874995D02*
G75*
G03*
X11883125Y-12925000I5J-50005D01*
G01*
X14751300Y-10970000D02*
G75*
G03*
X14701300Y-11020000I0J-50000D01*
G01*
X22947475Y-4652200D02*
X22947475Y-3592200D01*
X5825625Y-7159995D02*
G75*
G03*
X5775625Y-7210000I5J-50005D01*
G01*
X15062500Y-14225000D02*
X15062500Y-12925000D01*
X22970625Y-14275000D02*
X24270625Y-14275000D01*
X7125625Y-10465000D02*
X5825625Y-10465000D01*
X18158125Y-12320000D02*
X18158125Y-11020000D01*
X12083125Y-14225000D02*
X12083125Y-12925000D01*
X7175625Y-12925000D02*
X7175625Y-14225000D01*
X9635625Y-9064995D02*
G75*
G03*
X9585625Y-9115000I5J-50005D01*
G01*
X17443750Y-14225000D02*
G75*
G03*
X17493750Y-14275000I50010J10D01*
G01*
X20936875Y-6655000D02*
X19636875Y-6655000D01*
X14507500Y-12370000D02*
G75*
G03*
X14557500Y-12320000I0J50000D01*
G01*
X12313700Y-11020000D02*
X12313700Y-12420000D01*
X7680625Y-7210000D02*
X7680625Y-8510000D01*
X12255000Y-9065000D02*
G75*
G03*
X12205000Y-9115000I0J-50000D01*
G01*
X25315625Y-10727500D02*
X24763125Y-10727500D01*
X13013700Y-11020000D02*
G75*
G03*
X12963700Y-10970000I-50010J-10D01*
G01*
X15776875Y-6605000D02*
X15776875Y-5305000D01*
X14557500Y-11020000D02*
X14557500Y-12320000D01*
X22494375Y-8560000D02*
X23794375Y-8560000D01*
X25315625Y-15434995D02*
G75*
G03*
X25515625Y-15235000I5J199995D01*
G01*
X7175620Y-9115000D02*
G75*
G03*
X7125625Y-9065000I-50000J0D01*
G01*
X18793750Y-14275000D02*
X17493750Y-14275000D01*
X10935625Y-12875000D02*
X9635625Y-12875000D01*
X19825000Y-12925000D02*
X19825000Y-14225000D01*
X22841875Y-6655005D02*
G75*
G03*
X22891875Y-6605000I-5J50005D01*
G01*
X17653125Y-12320000D02*
X17653125Y-11020000D01*
X17205630Y-10415000D02*
G75*
G03*
X17255625Y-10465000I50000J0D01*
G01*
X9080625Y-4828750D02*
X9080625Y-6128750D01*
X15112500Y-12875000D02*
G75*
G03*
X15062500Y-12925000I0J-50000D01*
G01*
X25164425Y-12825000D02*
X25164425Y-14225000D01*
X7730625Y-7159995D02*
G75*
G03*
X7680625Y-7210000I5J-50005D01*
G01*
X24563125Y-10527500D02*
X24563125Y-9022500D01*
X22920630Y-14225000D02*
G75*
G03*
X22970625Y-14275000I50000J0D01*
G01*
X14253125Y-14275000D02*
X14353125Y-14275000D01*
X10985620Y-4828750D02*
G75*
G03*
X10935625Y-4778750I-50000J0D01*
G01*
X14557500Y-11020000D02*
G75*
G03*
X14507500Y-10970000I-50010J-10D01*
G01*
X21042480Y-3592200D02*
G75*
G03*
X20942475Y-3492200I-100000J0D01*
G01*
X12363700Y-12470000D02*
X12963700Y-12470000D01*
X12083120Y-7210000D02*
G75*
G03*
X12033125Y-7160000I-50000J0D01*
G01*
X7680630Y-6128750D02*
G75*
G03*
X7730625Y-6178750I50000J0D01*
G01*
X7730625Y-12875000D02*
X9030625Y-12875000D01*
X17493750Y-12875000D02*
G75*
G03*
X17443750Y-12925000I0J-50000D01*
G01*
X10935625Y-10970000D02*
X9635625Y-10970000D01*
X12963700Y-10970000D02*
X12363700Y-10970000D01*
X21225000Y-12925000D02*
G75*
G03*
X21175000Y-12875000I-50010J-10D01*
G01*
X22970625Y-10465000D02*
X24270625Y-10465000D01*
X12363700Y-10970000D02*
G75*
G03*
X12313700Y-11020000I0J-50000D01*
G01*
X23923125Y-10969995D02*
G75*
G03*
X23873125Y-11020000I5J-50005D01*
G01*
X20113125Y-12370000D02*
X21413125Y-12370000D01*
X20936875Y-6655005D02*
G75*
G03*
X20986875Y-6605000I-5J50005D01*
G01*
X21377475Y-4752200D02*
X22847475Y-4752200D01*
X9585625Y-10415000D02*
X9585625Y-9115000D01*
X24514425Y-12775000D02*
X25114425Y-12775000D01*
X9585630Y-14225000D02*
G75*
G03*
X9635625Y-14275000I50000J0D01*
G01*
X22841875Y-6655000D02*
X21541875Y-6655000D01*
X21042475Y-4652200D02*
X21042475Y-3592200D01*
X24563130Y-9022500D02*
G75*
G03*
X24363125Y-8822500I-200000J0D01*
G01*
X17467475Y-3592200D02*
X17467475Y-4652200D01*
X14203130Y-8510000D02*
G75*
G03*
X14253125Y-8560000I50000J0D01*
G01*
X5775625Y-12320000D02*
X5775625Y-11020000D01*
X21413125Y-10970000D02*
X20113125Y-10970000D01*
X21939375Y-7210000D02*
X21939375Y-8510000D01*
X9030625Y-10465005D02*
G75*
G03*
X9080625Y-10415000I-5J50005D01*
G01*
X17681880Y-6605000D02*
G75*
G03*
X17731875Y-6655000I50000J0D01*
G01*
X19984375Y-8560000D02*
X18684375Y-8560000D01*
X14203130Y-14225000D02*
G75*
G03*
X14253125Y-14275000I50000J0D01*
G01*
X16779375Y-8560000D02*
X18079375Y-8560000D01*
X18793750Y-14275000D02*
G75*
G03*
X18843750Y-14225000I0J50000D01*
G01*
X9080620Y-4828750D02*
G75*
G03*
X9030625Y-4778750I-50000J0D01*
G01*
X10935625Y-10465000D02*
X9635625Y-10465000D01*
X23318125Y-12370000D02*
X22018125Y-12370000D01*
X15300625Y-9115000D02*
X15300625Y-10415000D01*
X18129370Y-7210000D02*
G75*
G03*
X18079375Y-7160000I-50000J0D01*
G01*
X7730625Y-9064995D02*
G75*
G03*
X7680625Y-9115000I5J-50005D01*
G01*
X17162475Y-2805005D02*
G75*
G03*
X16962475Y-3005000I-5J-199995D01*
G01*
X14403120Y-7210000D02*
G75*
G03*
X14353125Y-7160000I-50000J0D01*
G01*
X19031875Y-5255000D02*
X17731875Y-5255000D01*
X21413125Y-12370005D02*
G75*
G03*
X21463125Y-12320000I-5J50005D01*
G01*
X7680630Y-14225000D02*
G75*
G03*
X7730625Y-14275000I50000J0D01*
G01*
X14874375Y-7159995D02*
G75*
G03*
X14824375Y-7210000I5J-50005D01*
G01*
D11*
X4758244Y-15760476D02*
X4758244Y-15560476D01*
X4805863Y-15560476D01*
X4834435Y-15570000D01*
X4853482Y-15589048D01*
X4863006Y-15608095D01*
X4872530Y-15646190D01*
X4872530Y-15674762D01*
X4863006Y-15712857D01*
X4853482Y-15731905D01*
X4834435Y-15750952D01*
X4805863Y-15760476D01*
X4758244Y-15760476D01*
X4958244Y-15760476D02*
X4958244Y-15627143D01*
X4958244Y-15665238D02*
X4967768Y-15646190D01*
X4977292Y-15636667D01*
X4996339Y-15627143D01*
X5015387Y-15627143D01*
X5082054Y-15760476D02*
X5082054Y-15627143D01*
X5082054Y-15560476D02*
X5072530Y-15570000D01*
X5082054Y-15579524D01*
X5091577Y-15570000D01*
X5082054Y-15560476D01*
X5082054Y-15579524D01*
X5205863Y-15760476D02*
X5186815Y-15750952D01*
X5177292Y-15731905D01*
X5177292Y-15560476D01*
X5310625Y-15760476D02*
X5291577Y-15750952D01*
X5282054Y-15731905D01*
X5282054Y-15560476D01*
X5539196Y-15760476D02*
X5539196Y-15560476D01*
X5605863Y-15703333D01*
X5672530Y-15560476D01*
X5672530Y-15760476D01*
X5853482Y-15760476D02*
X5853482Y-15655714D01*
X5843958Y-15636667D01*
X5824911Y-15627143D01*
X5786815Y-15627143D01*
X5767768Y-15636667D01*
X5853482Y-15750952D02*
X5834434Y-15760476D01*
X5786815Y-15760476D01*
X5767768Y-15750952D01*
X5758244Y-15731905D01*
X5758244Y-15712857D01*
X5767768Y-15693809D01*
X5786815Y-15684286D01*
X5834434Y-15684286D01*
X5853482Y-15674762D01*
X5948720Y-15627143D02*
X5948720Y-15827143D01*
X5948720Y-15636667D02*
X5967768Y-15627143D01*
X6005863Y-15627143D01*
X6024911Y-15636667D01*
X6034434Y-15646190D01*
X6043958Y-15665238D01*
X6043958Y-15722381D01*
X6034434Y-15741428D01*
X6024911Y-15750952D01*
X6005863Y-15760476D01*
X5967768Y-15760476D01*
X5948720Y-15750952D01*
X6129673Y-15741428D02*
X6139196Y-15750952D01*
X6129673Y-15760476D01*
X6120149Y-15750952D01*
X6129673Y-15741428D01*
X6129673Y-15760476D01*
X6129673Y-15636667D02*
X6139196Y-15646190D01*
X6129673Y-15655714D01*
X6120149Y-15646190D01*
X6129673Y-15636667D01*
X6129673Y-15655714D01*
M02*
