%TF.GenerationSoftware,KiCad,Pcbnew,(6.0.5)*%
%TF.CreationDate,2022-07-30T00:51:16-06:00*%
%TF.ProjectId,plate-left,706c6174-652d-46c6-9566-742e6b696361,rev?*%
%TF.SameCoordinates,Original*%
%TF.FileFunction,Profile,NP*%
%FSLAX46Y46*%
G04 Gerber Fmt 4.6, Leading zero omitted, Abs format (unit mm)*
G04 Created by KiCad (PCBNEW (6.0.5)) date 2022-07-30 00:51:16*
%MOMM*%
%LPD*%
G01*
G04 APERTURE LIST*
%TA.AperFunction,Profile*%
%ADD10C,0.300000*%
%TD*%
G04 APERTURE END LIST*
D10*
X109856200Y-91150000D02*
G75*
G03*
X109356250Y-90650000I-500000J0D01*
G01*
X137931250Y-71600000D02*
X124931250Y-71600000D01*
X186343750Y-85100000D02*
X186343750Y-72100000D01*
X215418750Y-52549950D02*
G75*
G03*
X214918750Y-53050000I50J-500050D01*
G01*
X96356250Y-71599950D02*
G75*
G03*
X95856250Y-72100000I50J-500050D01*
G01*
X90806200Y-129250000D02*
G75*
G03*
X90306250Y-128750000I-500000J0D01*
G01*
X234468750Y-52550000D02*
X247468750Y-52550000D01*
X119668800Y-66050000D02*
G75*
G03*
X120168750Y-66550000I500000J0D01*
G01*
X138718800Y-66050000D02*
G75*
G03*
X139218750Y-66550000I500000J0D01*
G01*
X185556250Y-104650050D02*
G75*
G03*
X186056250Y-104150000I-50J500050D01*
G01*
X153006300Y-104150000D02*
G75*
G03*
X153506250Y-104650000I500000J0D01*
G01*
X58256250Y-90649950D02*
G75*
G03*
X57756250Y-91150000I50J-500050D01*
G01*
X71756250Y-72100000D02*
X71756250Y-85100000D01*
X71256250Y-142750000D02*
X58256250Y-142750000D01*
X95856250Y-72100000D02*
X95856250Y-85100000D01*
X124931250Y-128749950D02*
G75*
G03*
X124431250Y-129250000I50J-500050D01*
G01*
X214631200Y-110200000D02*
G75*
G03*
X214131250Y-109700000I-500000J0D01*
G01*
X174674700Y-46522000D02*
G75*
G03*
X175674750Y-47522000I1000000J0D01*
G01*
X227268250Y-142750000D02*
X221268250Y-142750000D01*
X144031250Y-142250000D02*
X144031250Y-129250000D01*
X195081250Y-123700050D02*
G75*
G03*
X195581250Y-123200000I-50J500050D01*
G01*
X120831200Y-129250000D02*
G75*
G03*
X120331250Y-128750000I-500000J0D01*
G01*
X109356250Y-142750050D02*
G75*
G03*
X109856250Y-142250000I-50J500050D01*
G01*
X143531250Y-85600050D02*
G75*
G03*
X144031250Y-85100000I-50J500050D01*
G01*
X220768300Y-142250000D02*
G75*
G03*
X221268250Y-142750000I500000J0D01*
G01*
X145075000Y-123700000D02*
X132075000Y-123700000D01*
X118831300Y-85100000D02*
G75*
G03*
X119331250Y-85600000I500000J0D01*
G01*
X171768700Y-53050000D02*
G75*
G03*
X171268750Y-52550000I-500000J0D01*
G01*
X138431200Y-129250000D02*
G75*
G03*
X137931250Y-128750000I-500000J0D01*
G01*
X154013000Y-110200000D02*
G75*
G03*
X153513000Y-109700000I-500100J-100D01*
G01*
X90806250Y-91150000D02*
X90806250Y-104150000D01*
X140812500Y-91150000D02*
G75*
G03*
X140312500Y-90650000I-500100J-100D01*
G01*
X142031250Y-85100000D02*
X142031250Y-72100000D01*
X77306250Y-47787450D02*
G75*
G03*
X76806250Y-48287500I50J-500050D01*
G01*
X210156250Y-104150000D02*
X210156250Y-91150000D01*
X152218750Y-52550000D02*
X139218750Y-52550000D01*
X138431250Y-85100000D02*
X138431250Y-72100000D01*
X90306250Y-123700000D02*
X77306250Y-123700000D01*
X71756250Y-44737500D02*
X71756250Y-61787500D01*
X191606250Y-90649950D02*
G75*
G03*
X191106250Y-91150000I50J-500050D01*
G01*
X219393700Y-72100000D02*
G75*
G03*
X218893750Y-71600000I-500000J0D01*
G01*
X157768800Y-66050000D02*
G75*
G03*
X158268750Y-66550000I500000J0D01*
G01*
X96356250Y-109699950D02*
G75*
G03*
X95856250Y-110200000I50J-500050D01*
G01*
X109356250Y-61787550D02*
G75*
G03*
X109856250Y-61287500I-50J500050D01*
G01*
X151125000Y-128750000D02*
X164125000Y-128750000D01*
X243206200Y-129250000D02*
G75*
G03*
X242706250Y-128750000I-500000J0D01*
G01*
X186843750Y-71600000D02*
X199843750Y-71600000D01*
X214918800Y-66050000D02*
G75*
G03*
X215418750Y-66550000I500000J0D01*
G01*
X130137000Y-124200000D02*
X130137000Y-110200000D01*
X120168750Y-52549950D02*
G75*
G03*
X119668750Y-53050000I50J-500050D01*
G01*
X120331250Y-128750000D02*
X119331250Y-128750000D01*
X167624750Y-47500000D02*
X117246062Y-47500000D01*
X90306250Y-61787500D02*
X77306250Y-61787500D01*
X251144250Y-142750000D02*
X245144250Y-142750000D01*
X200343700Y-72100000D02*
G75*
G03*
X199843750Y-71600000I-500000J0D01*
G01*
X234468750Y-52549950D02*
G75*
G03*
X233968750Y-53050000I50J-500050D01*
G01*
X124431250Y-72100000D02*
X124431250Y-85100000D01*
X119668750Y-66050000D02*
X119668750Y-53050000D01*
X232974750Y-31050000D02*
G75*
G03*
X232974750Y-31050000I-1450000J0D01*
G01*
X133168750Y-66550000D02*
X120168750Y-66550000D01*
X45156200Y-152350000D02*
G75*
G03*
X47156250Y-154350000I2000000J0D01*
G01*
X77306250Y-128749950D02*
G75*
G03*
X76806250Y-129250000I50J-500050D01*
G01*
X234524750Y-45500000D02*
X234524750Y-30050000D01*
X175674750Y-47522000D02*
X190374750Y-47522000D01*
X71756200Y-72100000D02*
G75*
G03*
X71256250Y-71600000I-500000J0D01*
G01*
X153513000Y-124700000D02*
X147513000Y-124700000D01*
X167293750Y-72100000D02*
X167293750Y-85100000D01*
X196368750Y-52549950D02*
G75*
G03*
X195868750Y-53050000I50J-500050D01*
G01*
X180793750Y-71600000D02*
X167793750Y-71600000D01*
X154013000Y-110200000D02*
X154013000Y-124200000D01*
X132075000Y-109700000D02*
G75*
G03*
X131575000Y-110200000I0J-500000D01*
G01*
X162243750Y-85100000D02*
X162243750Y-72100000D01*
X215418750Y-52550000D02*
X228418750Y-52550000D01*
X174937500Y-128750000D02*
X187937500Y-128750000D01*
X96356250Y-123700000D02*
X109356250Y-123700000D01*
X224443800Y-85100000D02*
G75*
G03*
X224943750Y-85600000I500000J0D01*
G01*
X71256250Y-123700000D02*
X58256250Y-123700000D01*
X90306250Y-142750050D02*
G75*
G03*
X90806250Y-142250000I-50J500050D01*
G01*
X144031200Y-129250000D02*
G75*
G03*
X143531250Y-128750000I-500000J0D01*
G01*
X247968700Y-53050000D02*
G75*
G03*
X247468750Y-52550000I-500000J0D01*
G01*
X224156200Y-91150000D02*
G75*
G03*
X223656250Y-90650000I-500000J0D01*
G01*
X229706250Y-90649950D02*
G75*
G03*
X229206250Y-91150000I50J-500050D01*
G01*
X181581300Y-123200000D02*
G75*
G03*
X182081250Y-123700000I500000J0D01*
G01*
X49606250Y-151350000D02*
G75*
G03*
X49606250Y-151350000I-1450000J0D01*
G01*
X205893750Y-71600000D02*
X218893750Y-71600000D01*
X223656250Y-104650000D02*
X210656250Y-104650000D01*
X118831300Y-142250000D02*
G75*
G03*
X119331250Y-142750000I500000J0D01*
G01*
X58256250Y-128749950D02*
G75*
G03*
X57756250Y-129250000I50J-500050D01*
G01*
X124431300Y-85100000D02*
G75*
G03*
X124931250Y-85600000I500000J0D01*
G01*
X109356250Y-71600000D02*
X96356250Y-71600000D01*
X90306250Y-104650000D02*
X77306250Y-104650000D01*
X200631300Y-123200000D02*
G75*
G03*
X201131250Y-123700000I500000J0D01*
G01*
X109856200Y-129250000D02*
G75*
G03*
X109356250Y-128750000I-500000J0D01*
G01*
X73756250Y-42737550D02*
G75*
G03*
X71756250Y-44737500I-50J-1999950D01*
G01*
X205393750Y-85100000D02*
X205393750Y-72100000D01*
X219681300Y-123200000D02*
G75*
G03*
X220181250Y-123700000I500000J0D01*
G01*
X57756250Y-85100000D02*
X57756250Y-72100000D01*
X77306250Y-47787500D02*
X90306250Y-47787500D01*
X167293800Y-85100000D02*
G75*
G03*
X167793750Y-85600000I500000J0D01*
G01*
X71756250Y-110200000D02*
X71756250Y-123200000D01*
X218893750Y-85600050D02*
G75*
G03*
X219393750Y-85100000I-50J500050D01*
G01*
X198750000Y-128750000D02*
G75*
G03*
X198250000Y-129250000I0J-500000D01*
G01*
X119331250Y-142750000D02*
X120331250Y-142750000D01*
X176818750Y-53050000D02*
X176818750Y-66050000D01*
X150625000Y-142250000D02*
G75*
G03*
X151125000Y-142750000I500100J100D01*
G01*
X90806250Y-85100000D02*
X90806250Y-72100000D01*
X198750000Y-142750000D02*
X211750000Y-142750000D01*
X244644300Y-142250000D02*
G75*
G03*
X245144250Y-142750000I500000J0D01*
G01*
X238731300Y-123200000D02*
G75*
G03*
X239231250Y-123700000I500000J0D01*
G01*
X95856250Y-129250000D02*
X95856250Y-142250000D01*
X109856250Y-91150000D02*
X109856250Y-104150000D01*
X76806250Y-142250000D02*
X76806250Y-129250000D01*
X109856250Y-61287500D02*
X109856250Y-48287500D01*
X233681200Y-110200000D02*
G75*
G03*
X233181250Y-109700000I-500000J0D01*
G01*
X195581250Y-110200000D02*
X195581250Y-123200000D01*
X205393800Y-85100000D02*
G75*
G03*
X205893750Y-85600000I500000J0D01*
G01*
X253606250Y-151350000D02*
G75*
G03*
X253606250Y-151350000I-1450000J0D01*
G01*
X147513000Y-109700000D02*
X153513000Y-109700000D01*
X153506250Y-104650000D02*
X166506250Y-104650000D01*
X227768200Y-128250000D02*
G75*
G03*
X227268250Y-127750000I-500000J0D01*
G01*
X166506250Y-104650050D02*
G75*
G03*
X167006250Y-104150000I-50J500050D01*
G01*
X57756300Y-142250000D02*
G75*
G03*
X58256250Y-142750000I500000J0D01*
G01*
X49606250Y-66787500D02*
G75*
G03*
X49606250Y-66787500I-1450000J0D01*
G01*
X239231250Y-109700000D02*
X252231250Y-109700000D01*
X122050000Y-104150000D02*
G75*
G03*
X122550000Y-104650000I500100J100D01*
G01*
X131575000Y-123200000D02*
G75*
G03*
X132075000Y-123700000I500100J100D01*
G01*
X161743750Y-85600050D02*
G75*
G03*
X162243750Y-85100000I-50J500050D01*
G01*
X177318750Y-52549950D02*
G75*
G03*
X176818750Y-53050000I50J-500050D01*
G01*
X196368750Y-52550000D02*
X209368750Y-52550000D01*
X214918750Y-66050000D02*
X214918750Y-53050000D01*
X132075000Y-109700000D02*
X145075000Y-109700000D01*
X148743750Y-85600000D02*
X161743750Y-85600000D01*
X167793750Y-71599950D02*
G75*
G03*
X167293750Y-72100000I50J-500050D01*
G01*
X194724750Y-34922050D02*
G75*
G03*
X193724750Y-35922000I-50J-999950D01*
G01*
X147013000Y-124200000D02*
X147013000Y-110200000D01*
X190818750Y-66050000D02*
X190818750Y-53050000D01*
X223656250Y-104650050D02*
G75*
G03*
X224156250Y-104150000I-50J500050D01*
G01*
X255156250Y-152350000D02*
X255156250Y-109275000D01*
X143531250Y-85600000D02*
X142531250Y-85600000D01*
X158268750Y-52549950D02*
G75*
G03*
X157768750Y-53050000I50J-500050D01*
G01*
X243206250Y-104150000D02*
X243206250Y-91150000D01*
X90806250Y-129250000D02*
X90806250Y-142250000D01*
X195868750Y-66050000D02*
X195868750Y-53050000D01*
X69756250Y-63787500D02*
X47156250Y-63787500D01*
X181293750Y-85100000D02*
X181293750Y-72100000D01*
X209424750Y-34922000D02*
X194724750Y-34922000D01*
X69756250Y-63787450D02*
G75*
G03*
X71756250Y-61787500I50J1999950D01*
G01*
X140812500Y-104150000D02*
X140812500Y-91150000D01*
X162531250Y-110200000D02*
X162531250Y-123200000D01*
X123137000Y-124200000D02*
G75*
G03*
X123637000Y-124700000I500100J100D01*
G01*
X210156300Y-104150000D02*
G75*
G03*
X210656250Y-104650000I500000J0D01*
G01*
X140312500Y-104650000D02*
G75*
G03*
X140812500Y-104150000I0J500000D01*
G01*
X212774700Y-46522000D02*
G75*
G03*
X213774750Y-47522000I1000000J0D01*
G01*
X188437500Y-129250000D02*
G75*
G03*
X187937500Y-128750000I-500100J-100D01*
G01*
X242706250Y-142750050D02*
G75*
G03*
X243206250Y-142250000I-50J500050D01*
G01*
X194724750Y-47522000D02*
X209424750Y-47522000D01*
X245144250Y-127749950D02*
G75*
G03*
X244644250Y-128250000I50J-500050D01*
G01*
X153513000Y-124700000D02*
G75*
G03*
X154013000Y-124200000I0J500000D01*
G01*
X95856300Y-123200000D02*
G75*
G03*
X96356250Y-123700000I500000J0D01*
G01*
X90806200Y-91150000D02*
G75*
G03*
X90306250Y-90650000I-500000J0D01*
G01*
X227768250Y-128250000D02*
X227768250Y-142250000D01*
X161743750Y-71600000D02*
X148743750Y-71600000D01*
X109856250Y-142250000D02*
X109856250Y-129250000D01*
X237943750Y-71600000D02*
X224943750Y-71600000D01*
X96356250Y-128749950D02*
G75*
G03*
X95856250Y-129250000I50J-500050D01*
G01*
X71756250Y-91150000D02*
X71756250Y-104150000D01*
X120831250Y-85100000D02*
X120831250Y-72100000D01*
X199843750Y-85600050D02*
G75*
G03*
X200343750Y-85100000I-50J500050D01*
G01*
X190818700Y-53050000D02*
G75*
G03*
X190318750Y-52550000I-500000J0D01*
G01*
X57756300Y-104150000D02*
G75*
G03*
X58256250Y-104650000I500000J0D01*
G01*
X133668750Y-53050000D02*
X133668750Y-66050000D01*
X47156250Y-63787550D02*
G75*
G03*
X45156250Y-65787500I-50J-1999950D01*
G01*
X90306250Y-123700050D02*
G75*
G03*
X90806250Y-123200000I-50J500050D01*
G01*
X77306250Y-90650000D02*
X90306250Y-90650000D01*
X77306250Y-109700000D02*
X90306250Y-109700000D01*
X133668700Y-53050000D02*
G75*
G03*
X133168750Y-52550000I-500000J0D01*
G01*
X245631200Y-105275000D02*
G75*
G03*
X247631250Y-107275000I2000000J0D01*
G01*
X120331250Y-71600000D02*
X119331250Y-71600000D01*
X237943750Y-85600050D02*
G75*
G03*
X238443750Y-85100000I-50J500050D01*
G01*
X220768250Y-142250000D02*
X220768250Y-128250000D01*
X193724750Y-35922000D02*
X193724750Y-46522000D01*
X124931250Y-71599950D02*
G75*
G03*
X124431250Y-72100000I50J-500050D01*
G01*
X162531300Y-123200000D02*
G75*
G03*
X163031250Y-123700000I500000J0D01*
G01*
X252731200Y-110200000D02*
G75*
G03*
X252231250Y-109700000I-500000J0D01*
G01*
X188437500Y-129250000D02*
X188437500Y-142250000D01*
X228474750Y-47521950D02*
G75*
G03*
X229474750Y-46522000I50J999950D01*
G01*
X71256250Y-85600050D02*
G75*
G03*
X71756250Y-85100000I-50J500050D01*
G01*
X233968800Y-66050000D02*
G75*
G03*
X234468750Y-66550000I500000J0D01*
G01*
X213774750Y-34922050D02*
G75*
G03*
X212774750Y-35922000I-50J-999950D01*
G01*
X190374750Y-47521950D02*
G75*
G03*
X191374750Y-46522000I50J999950D01*
G01*
X195081250Y-123700000D02*
X182081250Y-123700000D01*
X238731250Y-123200000D02*
X238731250Y-110200000D01*
X166506250Y-90650000D02*
X153506250Y-90650000D01*
X139218750Y-66550000D02*
X152218750Y-66550000D01*
X167006250Y-104150000D02*
X167006250Y-91150000D01*
X172056250Y-91150000D02*
X172056250Y-104150000D01*
X58256250Y-90650000D02*
X71256250Y-90650000D01*
X195868800Y-66050000D02*
G75*
G03*
X196368750Y-66550000I500000J0D01*
G01*
X247968750Y-53050000D02*
X247968750Y-66050000D01*
X190318750Y-66550050D02*
G75*
G03*
X190818750Y-66050000I-50J500050D01*
G01*
X186056250Y-104150000D02*
X186056250Y-91150000D01*
X185556250Y-90650000D02*
X172556250Y-90650000D01*
X205893750Y-71599950D02*
G75*
G03*
X205393750Y-72100000I50J-500050D01*
G01*
X247468750Y-66550000D02*
X234468750Y-66550000D01*
X180793750Y-85600050D02*
G75*
G03*
X181293750Y-85100000I-50J500050D01*
G01*
X142531250Y-71599950D02*
G75*
G03*
X142031250Y-72100000I50J-500050D01*
G01*
X229206250Y-129250000D02*
X229206250Y-142250000D01*
X76806300Y-104150000D02*
G75*
G03*
X77306250Y-104650000I500000J0D01*
G01*
X122550000Y-104650000D02*
X140312500Y-104650000D01*
X169624750Y-30050000D02*
X169624750Y-45500000D01*
X115831839Y-46914224D02*
G75*
G03*
X117246062Y-47500000I1414161J1414124D01*
G01*
X96356250Y-61787500D02*
X109356250Y-61787500D01*
X171768750Y-53050000D02*
X171768750Y-66050000D01*
X242706250Y-128750000D02*
X229706250Y-128750000D01*
X58256250Y-109699950D02*
G75*
G03*
X57756250Y-110200000I50J-500050D01*
G01*
X193724700Y-46522000D02*
G75*
G03*
X194724750Y-47522000I1000000J0D01*
G01*
X224443750Y-72100000D02*
X224443750Y-85100000D01*
X198250000Y-142250000D02*
G75*
G03*
X198750000Y-142750000I500100J100D01*
G01*
X90806250Y-110200000D02*
X90806250Y-123200000D01*
X140312500Y-90650000D02*
X122550000Y-90650000D01*
X138718750Y-53050000D02*
X138718750Y-66050000D01*
X201131250Y-109699950D02*
G75*
G03*
X200631250Y-110200000I50J-500050D01*
G01*
X205106250Y-91150000D02*
X205106250Y-104150000D01*
X250393800Y-49500000D02*
G75*
G03*
X248393750Y-47500000I-2000000J0D01*
G01*
X109356250Y-85600050D02*
G75*
G03*
X109856250Y-85100000I-50J500050D01*
G01*
X229474800Y-35922000D02*
G75*
G03*
X228474750Y-34922000I-1000000J0D01*
G01*
X58256250Y-109700000D02*
X71256250Y-109700000D01*
X252231250Y-123700000D02*
X239231250Y-123700000D01*
X129637000Y-124700000D02*
G75*
G03*
X130137000Y-124200000I0J500000D01*
G01*
X148243800Y-85100000D02*
G75*
G03*
X148743750Y-85600000I500000J0D01*
G01*
X175674750Y-34922050D02*
G75*
G03*
X174674750Y-35922000I-50J-999950D01*
G01*
X137931250Y-85600050D02*
G75*
G03*
X138431250Y-85100000I-50J500050D01*
G01*
X57756300Y-85100000D02*
G75*
G03*
X58256250Y-85600000I500000J0D01*
G01*
X242706250Y-104650050D02*
G75*
G03*
X243206250Y-104150000I-50J500050D01*
G01*
X144031250Y-72100000D02*
X144031250Y-85100000D01*
X152718700Y-53050000D02*
G75*
G03*
X152218750Y-52550000I-500000J0D01*
G01*
X124431250Y-142250000D02*
X124431250Y-129250000D01*
X240868700Y-86225000D02*
G75*
G03*
X242868750Y-88225000I2000000J0D01*
G01*
X142531250Y-71600000D02*
X143531250Y-71600000D01*
X214631250Y-123200000D02*
X214631250Y-110200000D01*
X90306250Y-142750000D02*
X77306250Y-142750000D01*
X242868750Y-68975000D02*
X248393750Y-68975000D01*
X190374750Y-34922000D02*
X175674750Y-34922000D01*
X167624750Y-47499950D02*
G75*
G03*
X169624750Y-45500000I50J1999950D01*
G01*
X220181250Y-109699950D02*
G75*
G03*
X219681250Y-110200000I50J-500050D01*
G01*
X95856300Y-85100000D02*
G75*
G03*
X96356250Y-85600000I500000J0D01*
G01*
X58256250Y-71600000D02*
X71256250Y-71600000D01*
X224943750Y-71599950D02*
G75*
G03*
X224443750Y-72100000I50J-500050D01*
G01*
X120331250Y-142750050D02*
G75*
G03*
X120831250Y-142250000I-50J500050D01*
G01*
X164625000Y-129250000D02*
G75*
G03*
X164125000Y-128750000I-500100J-100D01*
G01*
X109356250Y-47787500D02*
X96356250Y-47787500D01*
X119331250Y-85600000D02*
X120331250Y-85600000D01*
X142031250Y-129250000D02*
X142031250Y-142250000D01*
X153506250Y-90649950D02*
G75*
G03*
X153006250Y-91150000I50J-500050D01*
G01*
X191106300Y-104150000D02*
G75*
G03*
X191606250Y-104650000I500000J0D01*
G01*
X252731250Y-110200000D02*
X252731250Y-123200000D01*
X210656250Y-90650000D02*
X223656250Y-90650000D01*
X124931250Y-85600000D02*
X137931250Y-85600000D01*
X204606250Y-104650050D02*
G75*
G03*
X205106250Y-104150000I-50J500050D01*
G01*
X71256250Y-123700050D02*
G75*
G03*
X71756250Y-123200000I-50J500050D01*
G01*
X191606250Y-90650000D02*
X204606250Y-90650000D01*
X234524700Y-45500000D02*
G75*
G03*
X236524750Y-47500000I2000000J0D01*
G01*
X229206300Y-104150000D02*
G75*
G03*
X229706250Y-104650000I500000J0D01*
G01*
X186056200Y-91150000D02*
G75*
G03*
X185556250Y-90650000I-500000J0D01*
G01*
X191106250Y-104150000D02*
X191106250Y-91150000D01*
X250393750Y-66975000D02*
X250393750Y-49500000D01*
X90806200Y-72100000D02*
G75*
G03*
X90306250Y-71600000I-500000J0D01*
G01*
X118831250Y-129250000D02*
X118831250Y-142250000D01*
X57756300Y-123200000D02*
G75*
G03*
X58256250Y-123700000I500000J0D01*
G01*
X182081250Y-109699950D02*
G75*
G03*
X181581250Y-110200000I50J-500050D01*
G01*
X212774750Y-35922000D02*
X212774750Y-46522000D01*
X90806200Y-110200000D02*
G75*
G03*
X90306250Y-109700000I-500000J0D01*
G01*
X182081250Y-109700000D02*
X195081250Y-109700000D01*
X47156250Y-154350000D02*
X253156250Y-154350000D01*
X57756250Y-104150000D02*
X57756250Y-91150000D01*
X248393750Y-47500000D02*
X236524750Y-47500000D01*
X71256250Y-142750050D02*
G75*
G03*
X71756250Y-142250000I-50J500050D01*
G01*
X186843750Y-71599950D02*
G75*
G03*
X186343750Y-72100000I50J-500050D01*
G01*
X109856200Y-72100000D02*
G75*
G03*
X109356250Y-71600000I-500000J0D01*
G01*
X112240926Y-43323282D02*
G75*
G03*
X110826708Y-42737500I-1414126J-1414018D01*
G01*
X233681250Y-110200000D02*
X233681250Y-123200000D01*
X120331250Y-85600050D02*
G75*
G03*
X120831250Y-85100000I-50J500050D01*
G01*
X139218750Y-52549950D02*
G75*
G03*
X138718750Y-53050000I50J-500050D01*
G01*
X110826708Y-42737500D02*
X73756250Y-42737500D01*
X158268750Y-52550000D02*
X171268750Y-52550000D01*
X172556250Y-90649950D02*
G75*
G03*
X172056250Y-91150000I50J-500050D01*
G01*
X138431200Y-72100000D02*
G75*
G03*
X137931250Y-71600000I-500000J0D01*
G01*
X90306250Y-61787550D02*
G75*
G03*
X90806250Y-61287500I-50J500050D01*
G01*
X124931250Y-128750000D02*
X137931250Y-128750000D01*
X77306250Y-85600000D02*
X90306250Y-85600000D01*
X143531250Y-128750000D02*
X142531250Y-128750000D01*
X211750000Y-128750000D02*
X198750000Y-128750000D01*
X221268250Y-127750000D02*
X227268250Y-127750000D01*
X211750000Y-142750000D02*
G75*
G03*
X212250000Y-142250000I0J500000D01*
G01*
X120168750Y-52550000D02*
X133168750Y-52550000D01*
X96356250Y-85600000D02*
X109356250Y-85600000D01*
X95856300Y-61287500D02*
G75*
G03*
X96356250Y-61787500I500000J0D01*
G01*
X152218750Y-66550050D02*
G75*
G03*
X152718750Y-66050000I-50J500050D01*
G01*
X148243750Y-72100000D02*
X148243750Y-85100000D01*
X77306250Y-109699950D02*
G75*
G03*
X76806250Y-110200000I50J-500050D01*
G01*
X233968750Y-66050000D02*
X233968750Y-53050000D01*
X248393750Y-68974950D02*
G75*
G03*
X250393750Y-66975000I50J1999950D01*
G01*
X255156300Y-109275000D02*
G75*
G03*
X253156250Y-107275000I-2000000J0D01*
G01*
X242706250Y-90650000D02*
X229706250Y-90650000D01*
X109856200Y-110200000D02*
G75*
G03*
X109356250Y-109700000I-500000J0D01*
G01*
X76806250Y-61287500D02*
X76806250Y-48287500D01*
X95856250Y-110200000D02*
X95856250Y-123200000D01*
X109356250Y-123700050D02*
G75*
G03*
X109856250Y-123200000I-50J500050D01*
G01*
X174437500Y-142250000D02*
X174437500Y-129250000D01*
X228918700Y-53050000D02*
G75*
G03*
X228418750Y-52550000I-500000J0D01*
G01*
X244644250Y-142250000D02*
X244644250Y-128250000D01*
X252231250Y-123700050D02*
G75*
G03*
X252731250Y-123200000I-50J500050D01*
G01*
X220181250Y-109700000D02*
X233181250Y-109700000D01*
X90306250Y-85600050D02*
G75*
G03*
X90806250Y-85100000I-50J500050D01*
G01*
X233181250Y-123700050D02*
G75*
G03*
X233681250Y-123200000I-50J500050D01*
G01*
X76806300Y-123200000D02*
G75*
G03*
X77306250Y-123700000I500000J0D01*
G01*
X224156250Y-91150000D02*
X224156250Y-104150000D01*
X76806250Y-123200000D02*
X76806250Y-110200000D01*
X167006200Y-91150000D02*
G75*
G03*
X166506250Y-90650000I-500000J0D01*
G01*
X122050000Y-91150000D02*
X122050000Y-104150000D01*
X229706250Y-128749950D02*
G75*
G03*
X229206250Y-129250000I50J-500050D01*
G01*
X210656250Y-90649950D02*
G75*
G03*
X210156250Y-91150000I50J-500050D01*
G01*
X142531250Y-128749950D02*
G75*
G03*
X142031250Y-129250000I50J-500050D01*
G01*
X116212500Y-151350000D02*
G75*
G03*
X116212500Y-151350000I-1450000J0D01*
G01*
X163031250Y-123700000D02*
X176031250Y-123700000D01*
X162243700Y-72100000D02*
G75*
G03*
X161743750Y-71600000I-500000J0D01*
G01*
X172556250Y-104650000D02*
X185556250Y-104650000D01*
X200631250Y-110200000D02*
X200631250Y-123200000D01*
X176031250Y-109700000D02*
X163031250Y-109700000D01*
X171268750Y-66550000D02*
X158268750Y-66550000D01*
X174074750Y-31050000D02*
G75*
G03*
X174074750Y-31050000I-1450000J0D01*
G01*
X212250000Y-142250000D02*
X212250000Y-129250000D01*
X71756200Y-110200000D02*
G75*
G03*
X71256250Y-109700000I-500000J0D01*
G01*
X200343750Y-72100000D02*
X200343750Y-85100000D01*
X205106200Y-91150000D02*
G75*
G03*
X204606250Y-90650000I-500000J0D01*
G01*
X164125000Y-142750000D02*
G75*
G03*
X164625000Y-142250000I0J500000D01*
G01*
X191374800Y-35922000D02*
G75*
G03*
X190374750Y-34922000I-1000000J0D01*
G01*
X96356250Y-47787450D02*
G75*
G03*
X95856250Y-48287500I50J-500050D01*
G01*
X234524800Y-30050000D02*
G75*
G03*
X232524750Y-28050000I-2000000J0D01*
G01*
X76806250Y-104150000D02*
X76806250Y-91150000D01*
X95856250Y-48287500D02*
X95856250Y-61287500D01*
X209868700Y-53050000D02*
G75*
G03*
X209368750Y-52550000I-500000J0D01*
G01*
X228474750Y-34922000D02*
X213774750Y-34922000D01*
X137931250Y-142750000D02*
X124931250Y-142750000D01*
X143531250Y-142750050D02*
G75*
G03*
X144031250Y-142250000I-50J500050D01*
G01*
X71756200Y-129250000D02*
G75*
G03*
X71256250Y-128750000I-500000J0D01*
G01*
X195581200Y-110200000D02*
G75*
G03*
X195081250Y-109700000I-500000J0D01*
G01*
X243206250Y-142250000D02*
X243206250Y-129250000D01*
X219681250Y-123200000D02*
X219681250Y-110200000D01*
X251144250Y-142750050D02*
G75*
G03*
X251644250Y-142250000I-50J500050D01*
G01*
X164125000Y-142750000D02*
X151125000Y-142750000D01*
X109856250Y-123200000D02*
X109856250Y-110200000D01*
X119331250Y-71599950D02*
G75*
G03*
X118831250Y-72100000I50J-500050D01*
G01*
X58256250Y-128750000D02*
X71256250Y-128750000D01*
X133168750Y-66550050D02*
G75*
G03*
X133668750Y-66050000I-50J500050D01*
G01*
X227268250Y-142750050D02*
G75*
G03*
X227768250Y-142250000I-50J500050D01*
G01*
X76806300Y-85100000D02*
G75*
G03*
X77306250Y-85600000I500000J0D01*
G01*
X242868750Y-68975050D02*
G75*
G03*
X240868750Y-70975000I-50J-1999950D01*
G01*
X118831250Y-72100000D02*
X118831250Y-85100000D01*
X71256250Y-104650050D02*
G75*
G03*
X71756250Y-104150000I-50J500050D01*
G01*
X124431300Y-142250000D02*
G75*
G03*
X124931250Y-142750000I500000J0D01*
G01*
X96356250Y-142750000D02*
X109356250Y-142750000D01*
X109356250Y-104650050D02*
G75*
G03*
X109856250Y-104150000I-50J500050D01*
G01*
X147013000Y-124200000D02*
G75*
G03*
X147513000Y-124700000I500100J100D01*
G01*
X138431250Y-129250000D02*
X138431250Y-142250000D01*
X251644200Y-128250000D02*
G75*
G03*
X251144250Y-127750000I-500000J0D01*
G01*
X90306250Y-71600000D02*
X77306250Y-71600000D01*
X247468750Y-66550050D02*
G75*
G03*
X247968750Y-66050000I-50J500050D01*
G01*
X243631250Y-88225000D02*
X242868750Y-88225000D01*
X228918750Y-53050000D02*
X228918750Y-66050000D01*
X218893750Y-85600000D02*
X205893750Y-85600000D01*
X191374750Y-46522000D02*
X191374750Y-35922000D01*
X131575000Y-123200000D02*
X131575000Y-110200000D01*
X229206250Y-91150000D02*
X229206250Y-104150000D01*
X177318750Y-66550000D02*
X190318750Y-66550000D01*
X71256250Y-85600000D02*
X58256250Y-85600000D01*
X243206200Y-91150000D02*
G75*
G03*
X242706250Y-90650000I-500000J0D01*
G01*
X115831849Y-46914214D02*
X112240922Y-43323286D01*
X209868750Y-53050000D02*
X209868750Y-66050000D01*
X176531200Y-110200000D02*
G75*
G03*
X176031250Y-109700000I-500000J0D01*
G01*
X209424750Y-47521950D02*
G75*
G03*
X210424750Y-46522000I50J999950D01*
G01*
X95856300Y-104150000D02*
G75*
G03*
X96356250Y-104650000I500000J0D01*
G01*
X164625000Y-129250000D02*
X164625000Y-142250000D01*
X163031250Y-109699950D02*
G75*
G03*
X162531250Y-110200000I50J-500050D01*
G01*
X176031250Y-123700050D02*
G75*
G03*
X176531250Y-123200000I-50J500050D01*
G01*
X57756250Y-142250000D02*
X57756250Y-129250000D01*
X232524750Y-28050000D02*
X171624750Y-28050000D01*
X45156250Y-65787500D02*
X45156250Y-152350000D01*
X240868750Y-86225000D02*
X240868750Y-70975000D01*
X171268750Y-66550050D02*
G75*
G03*
X171768750Y-66050000I-50J500050D01*
G01*
X186343800Y-85100000D02*
G75*
G03*
X186843750Y-85600000I500000J0D01*
G01*
X151606250Y-151350000D02*
G75*
G03*
X151606250Y-151350000I-1450000J0D01*
G01*
X221268250Y-127749950D02*
G75*
G03*
X220768250Y-128250000I50J-500050D01*
G01*
X96356250Y-90650000D02*
X109356250Y-90650000D01*
X238443750Y-85100000D02*
X238443750Y-72100000D01*
X152718750Y-66050000D02*
X152718750Y-53050000D01*
X204606250Y-104650000D02*
X191606250Y-104650000D01*
X137931250Y-142750050D02*
G75*
G03*
X138431250Y-142250000I-50J500050D01*
G01*
X109856250Y-85100000D02*
X109856250Y-72100000D01*
X238443700Y-72100000D02*
G75*
G03*
X237943750Y-71600000I-500000J0D01*
G01*
X119331250Y-128749950D02*
G75*
G03*
X118831250Y-129250000I50J-500050D01*
G01*
X147513000Y-109700000D02*
G75*
G03*
X147013000Y-110200000I0J-500000D01*
G01*
X229474750Y-46522000D02*
X229474750Y-35922000D01*
X58256250Y-71599950D02*
G75*
G03*
X57756250Y-72100000I50J-500050D01*
G01*
X150625000Y-142250000D02*
X150625000Y-129250000D01*
X229706250Y-142750000D02*
X242706250Y-142750000D01*
X71256250Y-104650000D02*
X58256250Y-104650000D01*
X181581250Y-123200000D02*
X181581250Y-110200000D01*
X120831250Y-142250000D02*
X120831250Y-129250000D01*
X71756250Y-129250000D02*
X71756250Y-142250000D01*
X96356250Y-90649950D02*
G75*
G03*
X95856250Y-91150000I50J-500050D01*
G01*
X174437500Y-142250000D02*
G75*
G03*
X174937500Y-142750000I500100J100D01*
G01*
X209368750Y-66550000D02*
X196368750Y-66550000D01*
X145075000Y-123700000D02*
G75*
G03*
X145575000Y-123200000I0J500000D01*
G01*
X123137000Y-110200000D02*
X123137000Y-124200000D01*
X76806250Y-72100000D02*
X76806250Y-85100000D01*
X122550000Y-90650000D02*
G75*
G03*
X122050000Y-91150000I0J-500000D01*
G01*
X253156250Y-107275000D02*
X247631250Y-107275000D01*
X130137000Y-110200000D02*
G75*
G03*
X129637000Y-109700000I-500100J-100D01*
G01*
X157768750Y-66050000D02*
X157768750Y-53050000D01*
X145575000Y-110200000D02*
X145575000Y-123200000D01*
X224943750Y-85600000D02*
X237943750Y-85600000D01*
X253156250Y-154349950D02*
G75*
G03*
X255156250Y-152350000I50J1999950D01*
G01*
X71756200Y-91150000D02*
G75*
G03*
X71256250Y-90650000I-500000J0D01*
G01*
X187937500Y-142750000D02*
X174937500Y-142750000D01*
X109356250Y-128750000D02*
X96356250Y-128750000D01*
X198250000Y-129250000D02*
X198250000Y-142250000D01*
X228418750Y-66550050D02*
G75*
G03*
X228918750Y-66050000I-50J500050D01*
G01*
X176531250Y-123200000D02*
X176531250Y-110200000D01*
X172056300Y-104150000D02*
G75*
G03*
X172556250Y-104650000I500000J0D01*
G01*
X90806250Y-48287500D02*
X90806250Y-61287500D01*
X151125000Y-128750000D02*
G75*
G03*
X150625000Y-129250000I0J-500000D01*
G01*
X251644250Y-128250000D02*
X251644250Y-142250000D01*
X77306250Y-71599950D02*
G75*
G03*
X76806250Y-72100000I50J-500050D01*
G01*
X245631250Y-105275000D02*
X245631250Y-90225000D01*
X229206300Y-142250000D02*
G75*
G03*
X229706250Y-142750000I500000J0D01*
G01*
X142531250Y-142750000D02*
X143531250Y-142750000D01*
X109856200Y-48287500D02*
G75*
G03*
X109356250Y-47787500I-500000J0D01*
G01*
X145575000Y-110200000D02*
G75*
G03*
X145075000Y-109700000I-500100J-100D01*
G01*
X210424800Y-35922000D02*
G75*
G03*
X209424750Y-34922000I-1000000J0D01*
G01*
X123637000Y-124700000D02*
X129637000Y-124700000D01*
X120831200Y-72100000D02*
G75*
G03*
X120331250Y-71600000I-500000J0D01*
G01*
X76806300Y-61287500D02*
G75*
G03*
X77306250Y-61787500I500000J0D01*
G01*
X77306250Y-128750000D02*
X90306250Y-128750000D01*
X174937500Y-128750000D02*
G75*
G03*
X174437500Y-129250000I0J-500000D01*
G01*
X109356250Y-109700000D02*
X96356250Y-109700000D01*
X129637000Y-109700000D02*
X123637000Y-109700000D01*
X212250000Y-129250000D02*
G75*
G03*
X211750000Y-128750000I-500100J-100D01*
G01*
X229706250Y-104650000D02*
X242706250Y-104650000D01*
X123637000Y-109700000D02*
G75*
G03*
X123137000Y-110200000I0J-500000D01*
G01*
X239231250Y-109699950D02*
G75*
G03*
X238731250Y-110200000I50J-500050D01*
G01*
X201131250Y-123700000D02*
X214131250Y-123700000D01*
X209368750Y-66550050D02*
G75*
G03*
X209868750Y-66050000I-50J500050D01*
G01*
X213774750Y-47522000D02*
X228474750Y-47522000D01*
X95856250Y-104150000D02*
X95856250Y-91150000D01*
X245144250Y-127750000D02*
X251144250Y-127750000D01*
X95856300Y-142250000D02*
G75*
G03*
X96356250Y-142750000I500000J0D01*
G01*
X228418750Y-66550000D02*
X215418750Y-66550000D01*
X210424750Y-46522000D02*
X210424750Y-35922000D01*
X245631300Y-90225000D02*
G75*
G03*
X243631250Y-88225000I-2000000J0D01*
G01*
X174674750Y-35922000D02*
X174674750Y-46522000D01*
X142031300Y-85100000D02*
G75*
G03*
X142531250Y-85600000I500000J0D01*
G01*
X57756250Y-123200000D02*
X57756250Y-110200000D01*
X214131250Y-109700000D02*
X201131250Y-109700000D01*
X219393750Y-72100000D02*
X219393750Y-85100000D01*
X90306250Y-104650050D02*
G75*
G03*
X90806250Y-104150000I-50J500050D01*
G01*
X176818800Y-66050000D02*
G75*
G03*
X177318750Y-66550000I500000J0D01*
G01*
X199843750Y-85600000D02*
X186843750Y-85600000D01*
X142031300Y-142250000D02*
G75*
G03*
X142531250Y-142750000I500000J0D01*
G01*
X167793750Y-85600000D02*
X180793750Y-85600000D01*
X187937500Y-142750000D02*
G75*
G03*
X188437500Y-142250000I0J500000D01*
G01*
X90806200Y-48287500D02*
G75*
G03*
X90306250Y-47787500I-500000J0D01*
G01*
X109356250Y-104650000D02*
X96356250Y-104650000D01*
X233181250Y-123700000D02*
X220181250Y-123700000D01*
X153006250Y-91150000D02*
X153006250Y-104150000D01*
X181293700Y-72100000D02*
G75*
G03*
X180793750Y-71600000I-500000J0D01*
G01*
X77306250Y-90649950D02*
G75*
G03*
X76806250Y-91150000I50J-500050D01*
G01*
X171624750Y-28050050D02*
G75*
G03*
X169624750Y-30050000I-50J-1999950D01*
G01*
X144031200Y-72100000D02*
G75*
G03*
X143531250Y-71600000I-500000J0D01*
G01*
X190318750Y-52550000D02*
X177318750Y-52550000D01*
X214131250Y-123700050D02*
G75*
G03*
X214631250Y-123200000I-50J500050D01*
G01*
X76806300Y-142250000D02*
G75*
G03*
X77306250Y-142750000I500000J0D01*
G01*
X148743750Y-71599950D02*
G75*
G03*
X148243750Y-72100000I50J-500050D01*
G01*
M02*
